<?xml version="1.0" standalone="no"?>
<!DOCTYPE svg PUBLIC "-//W3C//DTD SVG 20010904//EN"
 "http://www.w3.org/TR/2001/REC-SVG-20010904/DTD/svg10.dtd">
<svg version="1.0" xmlns="http://www.w3.org/2000/svg"
 width="100%" height="100%" viewBox="0 10 140.000000 120.000000"
 preserveAspectRatio="xMidYMid meet">
	<defs>
		<style type="text/css">
			.fip_blue {fill:#00F;}.fip_red {fill:#F00;}.fip_green {fill:#9A;}
		</style>
	</defs>
<g transform="translate(0.000000,120.000000) scale(0.030000,-0.030000)"
fill="#99AAFF" stroke="none">
<path d="M1000 3210 c0 -5 5 -10 10 -10 6 0 10 5 10 10 0 6 -4 10 -10 10 -5 0
-10 -4 -10 -10z"/>
<path d="M1940 3144 l-25 -15 25 7 c14 3 32 10 40 15 13 7 13 8 0 8 -8 0 -26
-6 -40 -15z"/>
<path d="M2049 3143 c-11 -3 -15 -11 -12 -23 3 -11 -5 -35 -17 -55 -12 -20
-20 -38 -18 -41 5 -5 88 76 88 86 0 15 -27 36 -41 33z"/>
<path d="M1845 3095 c-71 -23 -139 -46 -150 -50 -20 -7 -20 -6 -1 9 11 9 16
16 10 16 -13 -1 -45 -26 -39 -32 4 -4 -174 -65 -240 -82 -120 -31 -359 -42
-475 -21 -132 24 -187 11 -280 -64 -35 -28 -84 -60 -109 -71 -61 -27 -73 -34
-70 -40 1 -3 -3 -15 -9 -27 -11 -21 -10 -22 46 -28 31 -3 84 -11 116 -17 33
-6 127 -12 210 -12 128 -1 163 3 231 22 133 37 264 50 391 37 101 -11 112 -10
146 7 21 11 42 17 47 14 5 -3 11 -3 13 1 1 5 25 19 51 33 27 14 59 34 71 45
12 11 31 22 41 23 34 6 64 36 65 63 0 35 -35 46 -58 18 -9 -10 -21 -19 -27
-19 -6 0 -16 -12 -23 -27 -9 -22 -11 -23 -8 -6 4 20 1 21 -15 12 -11 -5 -23
-7 -28 -4 -5 3 -12 -1 -14 -7 -4 -9 -8 -9 -14 -3 -16 20 -33 15 -33 -10 0 -17
-4 -23 -14 -19 -8 3 -12 13 -8 26 3 14 1 19 -6 14 -7 -4 -12 -14 -12 -22 0 -8
-4 -13 -9 -9 -6 3 -8 15 -6 27 4 20 4 20 -14 2 -10 -10 -16 -23 -13 -28 3 -5
0 -6 -7 -2 -17 11 -41 -12 -34 -32 6 -14 5 -15 -9 -2 -14 13 -13 17 6 41 11
15 25 24 29 22 5 -3 7 3 5 13 -2 13 2 18 15 16 19 -3 21 6 7 28 -6 10 -10 11
-10 3 0 -7 -5 -13 -11 -13 -8 0 -8 4 1 15 9 11 17 12 30 5 13 -7 21 -7 25 0 9
15 27 12 19 -2 -4 -7 -3 -9 1 -5 14 12 14 36 2 33 -7 -2 -9 -1 -4 1 4 3 5 10
1 16 -3 7 4 1 15 -12 12 -13 21 -18 21 -12 0 7 5 9 10 6 6 -3 10 3 10 14 0 28
14 26 30 -4 7 -14 16 -23 18 -20 3 3 11 0 19 -6 10 -9 13 -8 13 5 0 9 5 16 11
16 6 0 8 7 5 16 -3 9 4 25 19 40 25 25 49 25 39 -1 -7 -18 28 -36 47 -24 7 5
10 9 6 9 -5 0 1 13 12 29 23 32 27 51 10 51 -5 0 -7 -5 -3 -12 5 -7 3 -8 -6
-3 -10 6 -9 11 4 21 10 7 24 10 32 7 11 -4 9 -13 -9 -46 -38 -73 -40 -84 -7
-48 36 39 52 74 44 96 -9 21 -24 19 -169 -30z m75 -17 c0 -19 -2 -20 -10 -8
-13 19 -13 30 0 30 6 0 10 -10 10 -22z m-1007 -157 c4 -1 7 -5 7 -10 0 -12
-59 -11 -66 0 -3 5 3 6 12 2 11 -4 15 -3 11 4 -4 7 0 10 10 8 10 -2 21 -4 26
-4z m627 -36 c-19 -19 -38 -35 -42 -35 -14 0 26 49 40 50 7 0 15 7 19 15 3 9
8 13 11 10 3 -3 -10 -21 -28 -40z m-45 25 c-7 -11 -65 -43 -65 -36 0 4 62 45
68 46 2 0 0 -5 -3 -10z m-135 -15 c-33 -19 -50 -18 -26 0 11 8 27 15 35 15 10
-1 7 -6 -9 -15z m-565 -25 c3 -5 -1 -10 -10 -10 -9 0 -13 5 -10 10 3 6 8 10
10 10 2 0 7 -4 10 -10z m947 -22 c-7 -7 -12 -8 -12 -2 0 14 12 26 19 19 2 -3
-1 -11 -7 -17z m-799 -3 c15 -3 27 -12 27 -21 0 -17 -12 -22 -58 -28 -25 -3
-32 0 -28 10 3 8 1 14 -4 14 -14 0 -12 -34 2 -48 9 -9 9 -12 -1 -12 -7 0 -22
10 -33 23 -11 12 -17 17 -14 11 7 -14 -21 -27 -29 -14 -3 5 -11 7 -18 4 -7 -2
-13 6 -13 21 -2 22 0 24 10 10 10 -14 16 -12 56 13 25 16 52 27 60 26 8 -2 27
-5 43 -9z m447 11 c0 -2 -7 -6 -15 -10 -8 -3 -15 -1 -15 4 0 6 7 10 15 10 8 0
15 -2 15 -4z m90 -10 c0 -2 -7 -7 -16 -10 -8 -3 -12 -2 -9 4 6 10 25 14 25 6z
m-173 -12 c-3 -3 -12 -4 -19 -1 -8 3 -5 6 6 6 11 1 17 -2 13 -5z m-717 -64 c0
-5 -5 -10 -11 -10 -5 0 -7 5 -4 10 3 6 8 10 11 10 2 0 4 -4 4 -10z m68 -34
c-22 -16 -143 -22 -133 -6 4 6 19 9 35 7 15 -3 43 -1 61 3 49 12 56 11 37 -4z"/>
<path d="M845 2820 c-3 -5 -1 -10 4 -10 6 0 11 5 11 10 0 6 -2 10 -4 10 -3 0
-8 -4 -11 -10z"/>
<path d="M937 2819 c7 -7 15 -10 18 -7 3 3 -2 9 -12 12 -14 6 -15 5 -6 -5z"/>
<path d="M2175 3130 c7 -12 -16 -58 -51 -99 -23 -27 -24 -31 -7 -31 10 0 27 8
39 18 30 25 67 90 58 103 -5 8 -3 9 6 4 9 -5 11 -4 6 3 -4 7 -18 12 -32 12
-14 0 -22 -4 -19 -10z"/>
<path class="fip_green" d="M2130 3122 c-21 -6 -102 -110 -91 -117 16 -9 79 35 102 72 22 35 17
53 -11 45z"/>
<path d="M2240 3119 c0 -17 -50 -90 -72 -107 -27 -20 -22 -33 10 -26 30 7 72
41 72 58 0 6 9 17 21 24 11 7 18 19 15 27 -3 8 -1 17 4 20 5 3 10 -3 12 -12 3
-11 -16 -42 -48 -78 l-52 -61 38 1 c23 0 47 8 59 19 12 11 21 14 21 8 0 -6 -8
-17 -17 -24 -10 -7 -19 -18 -20 -24 -3 -18 86 -8 108 12 11 9 22 14 25 11 8
-7 -56 -47 -75 -47 -11 0 -10 -5 4 -20 28 -30 89 -27 120 6 14 15 25 23 25 17
0 -15 -43 -51 -65 -55 -11 -2 -21 -11 -23 -21 -3 -13 1 -15 15 -10 10 3 2 -10
-19 -30 -20 -21 -32 -37 -27 -37 6 0 7 -5 4 -11 -5 -6 -12 -4 -21 8 -12 16
-15 16 -24 3 -5 -8 -7 -23 -4 -32 4 -14 -1 -18 -21 -18 -20 0 -26 -4 -21 -16
4 -10 2 -13 -6 -8 -6 4 -22 -5 -36 -22 -13 -16 -21 -23 -18 -16 11 18 -17 15
-40 -6 -22 -20 -29 -20 -66 -2 -23 11 -29 10 -43 -4 -14 -14 -15 -16 -1 -16
10 0 13 -6 10 -15 -4 -9 -17 -14 -34 -13 -16 1 -27 5 -24 9 2 4 -3 9 -11 13
-18 7 -26 -5 -20 -33 5 -27 -18 -28 -47 -1 -29 27 -43 20 -42 -19 2 -35 -2
-37 -30 -16 -30 23 -38 18 -31 -16 l7 -32 -36 7 c-38 7 -49 -7 -24 -32 7 -7 8
-12 2 -12 -6 0 -19 9 -29 20 -17 19 -45 26 -57 14 -4 -3 0 -17 8 -32 16 -31
19 -66 4 -57 -6 4 -8 10 -5 15 8 12 -17 50 -32 50 -7 0 -13 -7 -13 -16 0 -8 3
-13 8 -11 4 3 8 -11 9 -30 3 -50 20 -64 43 -35 10 12 21 18 24 13 3 -5 34 -2
73 6 38 8 82 12 99 9 18 -2 36 0 42 6 6 6 33 11 60 12 28 1 48 4 46 7 -4 7 67
21 74 14 10 -9 -52 -38 -81 -37 -36 2 -87 -16 -87 -29 0 -5 -5 -9 -11 -9 -5 0
-8 4 -5 8 2 4 -4 8 -15 8 -10 0 -20 -5 -21 -11 -6 -42 -4 -44 47 -98 33 -34
36 -45 21 -67 -10 -13 -9 -13 7 -1 9 8 15 16 12 19 -3 3 0 11 6 18 6 8 9 21 5
29 -7 19 1 19 20 0 9 -8 28 -15 44 -15 23 0 27 3 23 20 -3 11 -10 20 -16 20
-6 0 -7 3 -4 7 4 3 21 -7 37 -22 25 -24 34 -27 48 -18 9 6 16 17 14 25 -3 10
-1 11 9 1 21 -21 48 -15 55 11 5 21 9 23 33 16 29 -8 57 11 45 31 -4 7 1 9 15
4 24 -7 64 2 56 14 -2 5 6 6 18 4 12 -3 33 -19 46 -37 l25 -31 -25 23 c-29 26
-38 27 -64 8 -17 -12 -18 -16 -5 -32 14 -17 14 -17 -9 -2 -32 22 -74 5 -66
-26 6 -20 5 -20 -7 1 -13 21 -15 21 -46 6 -17 -8 -32 -19 -32 -24 0 -5 -7 -6
-15 -3 -25 10 -75 -15 -68 -34 5 -14 3 -15 -8 -4 -7 6 -35 12 -62 12 l-49 0
22 -37 21 -38 -26 28 c-20 21 -30 26 -38 18 -6 -6 -20 -11 -30 -11 -18 0 -19
-1 -3 -27 l17 -28 -25 28 c-29 31 -34 32 -60 12 -18 -14 -18 -16 -2 -40 10
-15 15 -32 12 -38 -3 -8 -5 -6 -6 3 0 8 -11 27 -23 43 -21 24 -25 26 -42 13
-19 -14 -19 -16 14 -85 19 -39 32 -73 29 -76 -6 -7 -68 108 -68 127 0 16 -34
51 -41 43 -3 -2 -11 5 -18 17 -7 11 -8 18 -3 14 5 -3 6 11 2 32 -5 31 -10 37
-29 35 -12 -2 -20 1 -16 7 4 6 -1 7 -11 3 -11 -4 -13 -8 -6 -11 7 -2 9 -8 6
-14 -4 -6 -1 -14 7 -18 10 -7 10 -11 0 -24 -11 -13 -11 -17 2 -22 9 -3 13 -12
11 -19 -3 -7 -1 -16 5 -20 18 -10 12 -30 -11 -40 -21 -9 -23 -16 -21 -75 1
-36 14 -110 29 -165 14 -55 28 -118 30 -139 3 -37 2 -38 -11 -19 -25 36 -35
72 -23 79 7 5 6 11 -5 19 -17 12 -67 170 -67 211 0 26 -11 30 -40 14 -17 -9
-19 -7 -15 20 5 38 -8 89 -19 72 -4 -7 -10 -10 -14 -8 -4 2 -8 -21 -10 -52 -2
-52 -1 -55 13 -38 11 15 15 16 16 5 4 -93 10 -150 18 -188 6 -25 17 -74 24
-108 10 -42 11 -65 4 -72 -7 -7 -6 -15 3 -26 7 -8 8 -15 3 -15 -5 0 -15 11
-21 25 -10 21 -9 25 6 26 13 0 13 2 -4 9 -27 10 -36 37 -60 168 -10 56 -23
102 -29 102 -6 0 -16 5 -23 12 -9 9 -7 15 6 25 16 14 16 14 -2 9 -16 -6 -17
-4 -6 9 13 16 3 20 -25 9 -13 -5 -14 -8 -3 -15 10 -7 9 -9 -3 -9 -19 0 -29
-30 -28 -80 1 -20 3 -27 6 -16 4 15 7 16 14 5 6 -10 9 -5 9 17 0 18 6 34 14
37 22 9 26 -3 10 -28 -14 -22 -14 -69 2 -155 l4 -25 -14 25 -15 25 0 -35 c0
-44 19 -130 33 -150 10 -13 9 -13 -6 -2 -10 8 -24 45 -32 85 -22 104 -23 121
-6 135 13 11 13 11 -1 6 -11 -3 -18 2 -22 15 -4 15 -10 18 -27 14 -18 -5 -21
-3 -14 8 11 18 13 110 2 103 -4 -3 -8 -14 -8 -24 0 -14 -5 -18 -17 -13 -17 6
-17 5 0 -14 17 -19 14 -33 -7 -33 -6 0 -4 5 4 10 13 8 12 10 -2 10 -14 0 -18
-8 -18 -37 0 -46 14 -73 23 -48 5 10 3 14 -5 9 -7 -4 -8 -3 -4 5 14 22 24 1
23 -47 0 -26 -3 -39 -5 -29 -7 32 -24 17 -20 -18 2 -19 0 -35 -4 -35 -4 0 -8
-5 -8 -11 0 -5 4 -8 9 -5 4 3 7 -18 6 -47 -1 -28 2 -60 7 -69 6 -13 5 -18 -5
-18 -20 0 -27 32 -27 132 0 74 -2 86 -15 82 -10 -4 -15 0 -16 12 -1 11 -2 28
-3 39 0 11 3 23 7 26 5 3 1 9 -8 12 -9 4 -14 3 -11 -2 3 -5 -3 -19 -14 -31
-11 -13 -21 -27 -21 -32 -2 -13 -5 -21 -18 -52 -6 -16 -9 -36 -6 -44 3 -8 0
-21 -6 -28 -7 -9 -8 -14 -1 -14 12 0 22 24 22 50 0 10 5 22 11 25 7 5 8 -6 5
-32 -4 -21 -7 -73 -8 -115 -1 -43 -5 -83 -10 -90 -5 -8 -7 20 -6 66 2 51 -1
81 -8 83 -12 4 -16 -46 -18 -247 0 -69 3 -150 7 -180 12 -78 14 -110 7 -110
-3 0 -14 53 -23 118 -19 121 -22 330 -7 413 5 28 4 46 -2 50 -6 4 -8 11 -4 17
3 6 2 13 -4 17 -5 3 -10 -3 -10 -14 0 -11 -4 -22 -9 -25 -6 -4 -6 5 -2 21 5
16 13 27 20 25 12 -2 13 0 16 39 1 16 -3 26 -11 26 -9 0 -11 -4 -4 -12 7 -8 2
-15 -16 -24 -15 -6 -24 -15 -20 -18 3 -3 1 -12 -4 -19 -6 -6 -10 -16 -9 -20 1
-5 -1 -17 -6 -27 -4 -11 -2 -28 5 -43 8 -13 10 -27 7 -31 -4 -3 -7 1 -7 10 0
9 -5 17 -11 17 -5 0 -8 -4 -4 -9 3 -5 1 -12 -4 -15 -4 -3 -9 -16 -9 -28 0 -13
-8 -57 -17 -98 -10 -41 -20 -92 -22 -112 -3 -25 -9 -36 -17 -31 -7 5 -7 2 1
-8 7 -8 8 -20 4 -28 -5 -7 -9 -43 -10 -80 -1 -36 -8 -104 -16 -151 l-13 -85 3
125 c4 111 16 237 30 310 3 14 11 59 19 100 9 41 16 93 17 115 2 22 7 45 11
52 13 17 -8 25 -22 8 -6 -8 -8 -20 -4 -26 5 -8 2 -10 -8 -7 -8 4 -15 1 -15 -5
-1 -22 -8 -42 -18 -49 -6 -4 -2 -8 8 -8 11 0 17 8 17 23 0 17 2 19 10 7 6 -10
5 -22 -4 -35 -7 -11 -23 -56 -36 -100 -13 -44 -28 -84 -33 -90 -7 -7 -7 -6 -2
3 4 7 7 29 7 48 0 21 4 32 11 27 6 -3 7 -1 3 5 -4 6 -2 22 5 34 10 21 10 21
-4 8 -14 -13 -56 -157 -60 -202 -1 -10 -6 -18 -11 -18 -5 0 -6 -3 -3 -7 4 -3
0 -17 -8 -30 -9 -13 -13 -23 -10 -23 2 0 0 -11 -5 -25 -7 -18 -6 -25 3 -25 8
0 9 -3 1 -8 -6 -4 -15 -25 -19 -47 -5 -22 -9 -43 -10 -47 -2 -5 -3 -18 -4 -30
-1 -15 -4 -19 -11 -12 -6 6 -6 22 0 44 6 19 12 51 15 70 8 72 46 233 71 298
24 66 26 120 2 106 -7 -4 -8 -3 -4 5 4 6 12 9 17 6 5 -4 9 -3 10 2 0 4 2 19 3
32 l3 23 -19 -23 c-11 -13 -16 -18 -12 -10 5 10 3 12 -5 7 -7 -5 -10 -10 -7
-13 3 -3 -3 -18 -12 -32 -19 -27 -20 -36 -9 -61 4 -8 -5 -46 -19 -85 -14 -38
-33 -91 -42 -117 -9 -27 -19 -48 -24 -48 -12 0 -11 1 31 107 50 125 55 143 42
143 -6 0 -11 -8 -11 -18 0 -10 -6 -24 -13 -30 -6 -7 -12 -16 -12 -20 -1 -17
-40 -92 -48 -92 -4 0 -5 -5 -2 -10 4 -6 1 -18 -6 -26 -7 -9 -14 -23 -16 -32
-1 -9 -7 -18 -13 -20 -5 -2 -8 -8 -5 -13 3 -4 -1 -19 -8 -31 -8 -13 -27 -61
-42 -108 -15 -46 -33 -97 -41 -112 -8 -16 -12 -33 -9 -38 3 -6 1 -10 -4 -10
-6 0 -11 -6 -11 -13 0 -7 -20 -52 -45 -100 -50 -98 -49 -97 -34 -97 30 0 85
51 172 160 7 8 28 40 47 70 19 30 39 58 45 62 16 12 28 9 18 -5 -14 -16 -53
-167 -53 -200 0 -15 6 -27 13 -27 19 0 117 67 139 95 18 23 21 24 43 9 14 -9
30 -12 37 -8 25 15 102 80 139 118 32 32 41 37 53 27 25 -21 37 -10 155 128
12 13 21 28 21 33 0 5 15 6 33 3 37 -7 39 -5 101 94 32 51 34 53 45 33 7 -12
15 -22 20 -22 4 0 30 27 56 61 26 33 58 65 72 70 13 5 38 31 55 59 17 27 37
50 44 50 8 0 14 9 14 20 0 11 7 20 15 20 8 0 27 19 41 43 68 110 69 110 151
121 12 1 29 8 37 15 9 8 16 10 16 6 0 -4 -11 -16 -24 -26 -13 -11 -23 -27 -21
-37 1 -9 -2 -23 -8 -30 -7 -9 -6 -11 4 -7 11 4 15 -8 17 -49 1 -30 -2 -57 -7
-61 -13 -7 -24 31 -15 47 12 18 12 48 1 48 -5 0 -7 -9 -4 -20 3 -11 1 -20 -3
-20 -12 0 -18 -34 -35 -195 -27 -253 -32 -322 -41 -555 -3 -96 -9 -192 -14
-212 -14 -69 15 -66 59 7 58 95 61 93 61 -39 0 -86 3 -116 13 -116 22 0 63 54
81 105 21 63 31 79 44 71 11 -6 17 -41 27 -149 3 -32 10 -69 15 -82 9 -22 12
-24 30 -13 23 15 66 100 75 152 4 20 11 36 15 36 4 0 14 -18 23 -40 8 -22 20
-40 26 -40 19 0 48 58 67 131 11 41 23 69 31 69 7 0 13 -4 13 -10 0 -5 3 -10
8 -10 21 1 36 25 62 101 24 72 31 84 49 81 29 -4 58 47 66 120 6 50 11 61 34
72 28 15 51 76 51 136 0 17 4 30 8 30 10 0 35 54 53 115 6 22 17 47 24 55 8 8
15 22 17 30 2 8 9 20 17 26 8 6 16 22 18 35 2 13 15 52 28 86 14 34 25 70 25
81 0 19 12 60 32 114 6 15 15 25 21 21 6 -3 7 -1 3 5 -4 6 3 25 15 41 12 16
19 34 15 39 -3 6 2 17 12 24 11 7 27 29 37 48 9 19 26 44 36 55 10 11 20 32
23 47 7 39 37 99 53 105 7 3 11 9 8 13 -3 4 2 11 11 14 13 5 14 9 4 21 -9 11
-9 15 -1 15 7 0 9 5 6 10 -3 6 -1 10 6 10 10 0 10 3 1 12 -9 9 -8 16 3 28 8 9
16 34 18 54 l2 37 -182 -1 c-124 0 -184 3 -188 10 -9 15 22 44 71 67 25 12 38
25 38 36 -2 13 3 16 17 12 11 -4 27 2 40 14 19 18 21 24 11 46 -6 14 -16 25
-22 25 -5 0 -10 10 -10 23 0 13 -5 28 -12 35 -9 9 -9 15 0 24 7 7 12 8 12 2 0
-7 20 -9 53 -7 28 2 72 5 97 7 25 2 50 -1 57 -6 15 -12 154 -17 147 -6 -3 4
-14 8 -25 8 -10 0 -19 4 -19 9 0 5 -8 11 -17 14 -10 3 -117 40 -238 81 -121
42 -247 83 -280 92 -33 8 -109 40 -169 70 -60 30 -120 54 -132 54 -13 0 -25 4
-28 9 -3 5 -30 14 -58 21 -50 12 -101 30 -140 50 -9 5 -39 12 -67 16 -39 5
-51 3 -51 -7z m134 -63 c-5 -14 -47 -46 -58 -46 -3 0 -3 7 0 15 4 8 13 15 20
15 8 0 17 7 20 15 4 8 10 15 15 15 4 0 6 -6 3 -14z m109 -41 c-3 -8 -8 -15
-12 -16 -3 0 -18 -2 -34 -4 -15 -2 -25 0 -22 6 4 5 17 9 31 9 15 0 24 6 24 16
0 8 4 13 10 9 5 -3 7 -12 3 -20z m71 -37 c-13 -24 -37 -48 -47 -48 -6 0 2 14
18 30 31 32 41 38 29 18z m65 -75 c-20 -26 -32 -33 -54 -32 -15 0 -12 4 13 16
17 9 32 20 32 25 0 4 5 8 11 8 8 0 7 -6 -2 -17z m121 -18 c0 -7 -43 -45 -62
-56 -12 -6 -18 -6 -18 1 0 5 6 10 13 10 7 0 21 11 31 25 17 22 36 33 36 20z
m-210 -54 c0 -17 -57 -34 -77 -22 -15 9 -12 10 19 11 20 0 40 5 43 10 8 12 15
13 15 1z m95 -35 c-16 -13 -32 -22 -34 -20 -5 5 42 43 54 44 6 0 -3 -11 -20
-24z m312 -72 c-3 -3 -12 -4 -19 -1 -8 3 -5 6 6 6 11 1 17 -2 13 -5z m-197
-14 c-8 -5 -24 -9 -35 -9 -16 1 -16 2 5 9 35 11 48 11 30 0z m-420 -200 c0 -5
-5 -10 -11 -10 -5 0 -7 5 -4 10 3 6 8 10 11 10 2 0 4 -4 4 -10z m-75 -20 c3
-6 0 -12 -7 -14 -7 -1 -28 -8 -45 -14 -27 -8 -33 -8 -33 4 0 8 10 14 24 14 14
0 28 5 31 10 8 13 22 13 30 0z m415 -10 c-27 -21 -46 -25 -54 -11 -4 5 2 7 12
4 10 -2 24 3 31 11 8 9 19 16 25 16 6 0 0 -9 -14 -20z m-90 -40 c0 -5 -21 -19
-47 -32 -64 -30 -71 -32 -51 -15 12 9 14 17 7 24 -7 7 -3 9 14 6 16 -3 31 2
44 14 18 19 33 21 33 3z m-825 -189 c-3 -6 -11 -8 -17 -5 -6 4 -5 9 3 15 16
10 23 4 14 -10z m6 -34 c-10 -9 -11 -8 -5 6 3 10 9 15 12 12 3 -3 0 -11 -7
-18z m34 -67 c3 -5 -1 -10 -10 -10 -9 0 -13 5 -10 10 3 6 8 10 10 10 2 0 7 -4
10 -10z m316 -7 c13 -16 12 -17 -3 -4 -17 13 -22 21 -14 21 2 0 10 -8 17 -17z
m-501 -56 c0 -4 -6 -2 -14 5 -8 7 -12 17 -9 22 5 8 23 -12 23 -27z m160 -7 c0
-5 -2 -10 -4 -10 -3 0 -8 5 -11 10 -3 6 -1 10 4 10 6 0 11 -4 11 -10z m-240
-352 c0 -19 -2 -20 -10 -8 -13 19 -13 30 0 30 6 0 10 -10 10 -22z m608 -15
c-1 -5 4 -20 10 -35 6 -15 9 -37 7 -49 -5 -27 -15 -38 -16 -18 -2 41 -6 66
-13 87 -4 14 -3 22 3 22 6 0 10 -3 9 -7z m-723 -23 c3 -5 1 -10 -4 -10 -6 0
-11 5 -11 10 0 6 2 10 4 10 3 0 8 -4 11 -10z m872 -5 c0 -8 -4 -12 -9 -9 -5 3
-6 10 -3 15 9 13 12 11 12 -6z m-89 -53 c3 -48 -8 -67 -23 -42 -3 6 -2 10 2
10 14 0 15 61 1 78 -11 13 -10 14 2 10 10 -3 16 -21 18 -56z m-781 1 c-3 -10
-5 -4 -5 12 0 17 2 24 5 18 2 -7 2 -21 0 -30z m833 27 c0 -5 -5 -10 -11 -10
-5 0 -7 5 -4 10 3 6 8 10 11 10 2 0 4 -4 4 -10z m0 -36 c0 -8 -5 -12 -10 -9
-6 4 -8 11 -5 16 9 14 15 11 15 -7z m55 6 c3 -5 1 -10 -4 -10 -6 0 -11 5 -11
10 0 6 2 10 4 10 3 0 8 -4 11 -10z m339 -16 c3 -8 2 -12 -4 -9 -6 3 -10 10
-10 16 0 14 7 11 14 -7z m-1214 -31 c0 -19 -13 -9 -16 12 -1 8 2 13 7 9 5 -3
9 -12 9 -21z m1150 -8 c0 -5 -5 -3 -10 5 -5 8 -10 20 -10 25 0 6 5 3 10 -5 5
-8 10 -19 10 -25z m-1038 -20 c1 -16 7 -33 13 -37 6 -5 6 -8 -2 -8 -16 0 -20
8 -28 55 -5 28 -4 37 3 30 6 -5 12 -23 14 -40z m945 23 c-3 -8 -6 -5 -6 6 -1
11 2 17 5 13 3 -3 4 -12 1 -19z m-334 -8 c-3 -11 -7 -20 -9 -20 -2 0 -4 9 -4
20 0 11 4 20 9 20 5 0 7 -9 4 -20z m-742 -90 c5 -35 12 -68 15 -72 3 -5 8 -24
11 -41 10 -65 -16 -11 -32 68 -29 135 -29 131 -16 119 6 -6 16 -39 22 -74z
m1099 40 c0 -5 -2 -10 -4 -10 -3 0 -8 5 -11 10 -3 6 -1 10 4 10 6 0 11 -4 11
-10z m-1363 -42 c-3 -8 -6 -5 -6 6 -1 11 2 17 5 13 3 -3 4 -12 1 -19z m428 -8
c8 -16 15 -32 15 -37 0 -10 -25 27 -33 50 -10 27 1 20 18 -13z m875 20 c0 -5
-2 -10 -4 -10 -3 0 -8 5 -11 10 -3 6 -1 10 4 10 6 0 11 -4 11 -10z m51 -13
c-10 -9 -11 -8 -5 6 3 10 9 15 12 12 3 -3 0 -11 -7 -18z m-1234 -29 c-3 -7 -5
-2 -5 12 0 14 2 19 5 13 2 -7 2 -19 0 -25z m1003 -3 c0 -5 -5 -3 -10 5 -5 8
-10 20 -10 25 0 6 5 3 10 -5 5 -8 10 -19 10 -25z m77 3 c-3 -8 -6 -5 -6 6 -1
11 2 17 5 13 3 -3 4 -12 1 -19z m-218 -44 c-9 -46 -24 -74 -39 -74 -4 0 1 17
11 37 10 21 19 45 19 53 0 14 8 30 15 30 1 0 -1 -21 -6 -46z m78 -27 c-6 -40
-21 -66 -33 -54 -4 4 -1 13 5 21 7 8 13 30 14 49 1 19 6 33 11 30 4 -3 6 -24
3 -46z m73 19 c0 -12 -7 -31 -16 -42 -8 -10 -13 -14 -10 -8 3 6 6 27 8 47 2
38 18 41 18 3z m80 24 c0 -5 -4 -10 -10 -10 -5 0 -10 5 -10 10 0 6 5 10 10 10
6 0 10 -4 10 -10z m-1093 -47 c-3 -10 -5 -4 -5 12 0 17 2 24 5 18 2 -7 2 -21
0 -30z m1083 12 c-7 -9 -15 -13 -17 -11 -7 7 7 26 19 26 6 0 6 -6 -2 -15z
m-1083 -92 c-3 -10 -5 -4 -5 12 0 17 2 24 5 18 2 -7 2 -21 0 -30z m186 17 c3
-11 1 -20 -4 -20 -5 0 -9 9 -9 20 0 11 2 20 4 20 2 0 6 -9 9 -20z m634 -47
c-3 -10 -5 -2 -5 17 0 19 2 27 5 18 2 -10 2 -26 0 -35z m94 -14 c-5 -13 -10
-19 -10 -12 -1 15 10 45 15 40 3 -2 0 -15 -5 -28z m-91 -23 c0 -3 -4 -8 -10
-11 -5 -3 -10 -1 -10 4 0 6 5 11 10 11 6 0 10 -2 10 -4z m85 -68 c-5 -29 -10
-47 -13 -40 -5 17 8 106 15 99 3 -3 2 -30 -2 -59z m-100 -53 c-4 -48 -9 -84
-12 -81 -3 3 -2 44 2 91 4 48 9 84 12 81 3 -3 2 -44 -2 -91z m222 23 c-3 -7
-5 -2 -5 12 0 14 2 19 5 13 2 -7 2 -19 0 -25z m-1501 -45 c-8 -15 -15 -25 -16
-21 0 12 23 58 27 54 3 -2 -2 -17 -11 -33z"/>
<path d="M1850 3004 c0 -14 4 -23 10 -19 6 3 10 15 10 26 0 10 -4 19 -10 19
-5 0 -10 -12 -10 -26z"/>
<path d="M1890 2999 c0 -5 5 -7 10 -4 6 3 10 8 10 11 0 2 -4 4 -10 4 -5 0 -10
-5 -10 -11z"/>
<path d="M1728 2963 c7 -3 16 -2 19 1 4 3 -2 6 -13 5 -11 0 -14 -3 -6 -6z"/>
<path d="M1816 2951 c-4 -7 -5 -15 -2 -18 9 -9 19 4 14 18 -4 11 -6 11 -12 0z"/>
<path d="M1735 2920 c-3 -5 -1 -10 4 -10 6 0 11 5 11 10 0 6 -2 10 -4 10 -3 0
-8 -4 -11 -10z"/>
<path d="M2273 2855 c0 -8 3 -13 5 -10 3 3 12 -1 21 -7 10 -8 9 -4 -3 10 -23
26 -23 26 -23 7z"/>
<path d="M2270 2778 c0 -4 5 -8 11 -8 5 0 7 -6 3 -12 -4 -7 -3 -9 1 -5 15 13
14 34 -1 34 -8 0 -14 -4 -14 -9z"/>
<path d="M2010 2750 c-9 -6 -10 -10 -3 -10 6 0 15 5 18 10 8 12 4 12 -15 0z"/>
<path d="M2150 2710 c-13 -8 -12 -10 3 -10 9 0 17 5 17 10 0 12 -1 12 -20 0z"/>
<path d="M2220 2711 c0 -14 18 -23 31 -15 8 4 7 9 -2 15 -18 11 -29 11 -29 0z"/>
<path d="M2144 2678 c-4 -5 -1 -14 7 -18 14 -9 29 -4 29 10 0 13 -29 20 -36 8z"/>
<path d="M1464 2642 c-6 -4 -17 -18 -23 -32 -12 -23 -11 -23 13 4 31 35 35 45
10 28z"/>
<path d="M3617 2605 c-23 -21 -39 -25 -90 -26 -62 -1 -62 -1 -30 -15 29 -12
184 -47 260 -58 38 -5 65 19 57 51 -4 15 -25 28 -79 47 -40 14 -77 26 -82 26
-4 0 -21 -12 -36 -25z"/>
<path d="M1948 2613 c7 -3 16 -2 19 1 4 3 -2 6 -13 5 -11 0 -14 -3 -6 -6z"/>
<path d="M3270 2561 c0 -5 7 -11 15 -15 8 -3 15 -1 15 3 0 5 -7 11 -15 15 -8
3 -15 1 -15 -3z"/>
<path d="M3330 2543 c0 -7 7 -13 16 -13 8 0 13 -4 9 -10 -3 -5 -13 -6 -23 -3
-13 5 -14 3 -6 -6 9 -10 17 -10 33 -1 12 6 19 15 16 20 -3 6 1 7 9 4 9 -3 13
-11 9 -18 -4 -6 1 -5 10 3 9 7 17 9 17 4 0 -6 12 -9 28 -7 15 2 19 1 10 -2
-10 -3 -18 -12 -18 -20 0 -10 -12 -14 -40 -14 -66 0 -45 -17 33 -25 102 -12
196 -10 242 5 l39 13 -49 13 c-107 29 -219 52 -227 48 -4 -3 -8 0 -8 6 0 6 -4
9 -9 5 -5 -3 -12 -1 -16 5 -9 15 -75 9 -75 -7z"/>
<path d="M1447 2430 c-3 -11 -1 -23 4 -26 5 -3 9 6 9 20 0 31 -6 34 -13 6z"/>
<path d="M1634 2442 c-32 -21 -15 -117 18 -109 9 3 19 0 22 -7 2 -6 2 3 1 19
-2 17 -4 38 -4 48 -1 10 -5 16 -10 13 -5 -4 -7 2 -4 13 5 21 -7 33 -23 23z"/>
<path d="M1530 2420 c-13 -8 -12 -10 3 -10 9 0 17 5 17 10 0 12 -1 12 -20 0z"/>
<path d="M1375 2392 c-12 -17 -13 -22 -4 -15 9 7 18 11 20 8 3 -2 5 5 6 15 2
25 2 25 -22 -8z"/>
<path d="M1533 2385 c0 -8 4 -12 9 -9 5 3 6 10 3 15 -9 13 -12 11 -12 -6z"/>
<path d="M1565 2378 c1 -13 9 -39 18 -58 l16 -35 0 35 c1 48 -9 80 -24 80 -6
0 -11 -10 -10 -22z"/>
<path d="M1446 2381 c-4 -6 0 -14 9 -17 9 -4 14 -12 11 -19 -7 -20 4 -26 26
-14 19 10 17 24 -2 24 -5 0 -15 9 -23 19 -10 13 -16 15 -21 7z"/>
<path d="M1873 2372 c-19 -12 -18 -36 5 -77 33 -61 49 -78 67 -71 12 4 14 12
9 28 -4 13 -10 25 -14 28 -4 3 -12 22 -19 42 -14 41 -31 60 -48 50z"/>
<path d="M1374 2359 c-3 -6 -2 -15 3 -20 5 -5 9 -1 9 11 0 23 -2 24 -12 9z"/>
<path d="M1792 2353 c-6 -3 -9 -9 -6 -14 3 -6 8 -25 11 -42 2 -18 11 -37 19
-43 7 -6 12 -13 9 -15 -2 -3 6 -5 19 -5 24 0 25 15 3 43 -5 7 -7 19 -4 27 7
17 -33 55 -51 49z"/>
<path d="M1535 2330 c-3 -5 -1 -10 4 -10 6 0 11 5 11 10 0 6 -2 10 -4 10 -3 0
-8 -4 -11 -10z"/>
<path d="M1369 2313 c-6 -55 -6 -73 -1 -73 4 0 8 18 9 40 2 22 0 40 -2 40 -3
0 -5 -3 -6 -7z"/>
<path d="M1483 2285 c0 -8 4 -12 9 -9 5 3 6 10 3 15 -9 13 -12 11 -12 -6z"/>
<path d="M1408 2277 c-6 -16 1 -37 13 -37 12 0 12 37 0 44 -5 3 -11 0 -13 -7z"/>
<path d="M1495 2260 c-3 -5 -1 -10 4 -10 6 0 11 5 11 10 0 6 -2 10 -4 10 -3 0
-8 -4 -11 -10z"/>
<path d="M1290 2233 c0 -29 12 -24 17 7 2 11 -2 20 -7 20 -6 0 -10 -12 -10
-27z"/>
<path d="M1420 2220 c0 -5 1 -11 2 -12 1 -2 -3 -12 -9 -23 -7 -12 -7 -28 -2
-40 9 -18 9 -18 5 3 -2 12 -1 22 3 22 3 0 7 14 7 30 1 17 0 30 -2 30 -2 0 -4
-4 -4 -10z"/>
<path d="M1626 2222 c-3 -5 1 -9 9 -9 8 0 12 4 9 9 -3 4 -7 8 -9 8 -2 0 -6 -4
-9 -8z"/>
<path d="M1573 2208 c-13 -22 -13 -42 0 -29 10 10 19 41 12 41 -2 0 -7 -6 -12
-12z"/>
<path d="M1656 2192 c-21 -40 -12 -121 13 -118 9 2 17 13 19 24 2 12 7 22 12
22 9 0 -7 81 -20 94 -5 4 -15 -5 -24 -22z"/>
<path d="M1340 2199 c0 -4 6 -10 13 -12 9 -4 8 -6 -2 -6 -11 -1 -11 -4 -1 -16
7 -9 10 -18 6 -22 -3 -3 -6 -1 -6 5 0 7 -4 12 -8 12 -5 0 -9 -6 -9 -12 0 -7
-3 -30 -7 -51 -6 -34 -5 -37 7 -26 8 8 12 20 10 26 -3 7 2 16 11 19 20 8 18
91 -1 91 -7 0 -13 -4 -13 -8z"/>
<path d="M1219 2188 c-6 -25 -6 -38 1 -38 12 0 20 29 10 35 -6 4 -10 5 -11 3z"/>
<path d="M1275 2150 c-3 -5 -3 -14 0 -20 3 -5 2 -10 -3 -10 -5 0 -10 -6 -11
-12 -1 -7 -3 -26 -5 -43 -3 -16 -5 -30 -6 -30 -8 0 -6 -36 2 -42 7 -3 8 -1 4
6 -4 6 0 14 8 17 15 6 19 22 30 101 4 33 -7 52 -19 33z"/>
<path d="M1210 2100 c0 -5 -6 -9 -12 -7 -7 1 -14 -5 -14 -13 -1 -8 -3 -17 -4
-20 -1 -3 -4 -16 -5 -30 -2 -14 -5 -30 -7 -37 -2 -6 0 -11 5 -12 4 -1 7 2 6 5
0 4 5 11 13 15 10 7 10 9 -2 9 -13 0 -13 1 0 10 10 6 11 10 3 10 -7 0 -13 4
-13 10 0 5 8 7 18 4 14 -5 15 -4 2 5 -13 9 -13 11 0 11 9 0 16 10 18 25 1 14
0 25 -3 25 -3 0 -5 -4 -5 -10z"/>
<path d="M1124 2055 c-3 -8 -4 -20 -2 -27 3 -7 7 -1 10 15 6 29 1 36 -8 12z"/>
<path d="M1491 2050 c-13 -11 -18 -20 -13 -20 6 0 14 5 17 10 4 6 10 8 14 6 4
-3 8 1 8 9 0 8 -1 15 -1 15 -1 -1 -12 -10 -25 -20z"/>
<path d="M1107 2003 c-10 -9 -9 -23 1 -23 5 0 9 7 9 15 0 17 -1 18 -10 8z"/>
<path d="M1741 1780 c0 -8 4 -22 9 -30 12 -18 12 -2 0 25 -6 13 -9 15 -9 5z"/>
<path d="M1610 1731 c0 -11 4 -22 9 -25 4 -3 6 6 3 19 -5 30 -12 33 -12 6z"/>
<path d="M865 1600 c-3 -5 -3 -10 2 -10 4 0 1 -5 -7 -10 -8 -5 -10 -10 -4 -10
17 0 37 27 25 34 -5 4 -12 2 -16 -4z"/>
<path d="M836 1528 c-17 -28 -33 -81 -17 -58 10 13 11 13 11 0 0 -21 -35 -72
-44 -63 -4 4 -4 0 -1 -8 4 -10 -3 -19 -19 -27 -15 -7 -23 -17 -20 -25 6 -17
-61 -159 -70 -149 -4 3 -4 -1 0 -11 4 -12 1 -17 -11 -17 -9 0 -13 -5 -10 -10
6 -9 -8 -37 -62 -125 -7 -11 -18 -31 -25 -45 -7 -14 -16 -28 -21 -31 -7 -5
-10 -13 -16 -49 -1 -3 -5 1 -10 8 -5 9 -18 -4 -42 -43 -19 -31 -40 -63 -47
-71 -11 -12 -11 -14 3 -14 25 0 124 80 183 147 82 95 88 104 112 178 13 39 26
75 30 80 4 6 20 44 35 85 15 41 31 80 35 85 5 6 19 38 33 71 23 57 23 95 0 81
-5 -3 -10 0 -10 7 0 8 6 12 14 9 7 -3 13 0 13 6 0 19 -29 12 -44 -11z m-62
-173 c-4 -8 -11 -12 -16 -9 -6 4 -5 10 3 15 19 12 19 11 13 -6z"/>
<path d="M755 1510 c-3 -6 1 -7 9 -4 18 7 21 14 7 14 -6 0 -13 -4 -16 -10z"/>
<path d="M743 1450 c-3 -11 -9 -17 -14 -14 -5 3 -9 1 -9 -5 0 -19 -189 -258
-269 -338 -44 -45 -81 -85 -81 -88 0 -13 46 -3 98 23 90 43 153 117 224 261
45 92 63 120 70 110 7 -11 8 -9 4 5 -4 10 -1 25 5 32 12 14 4 34 -13 34 -5 0
-12 -9 -15 -20z"/>
<path d="M711 1293 c-10 -26 -10 -27 4 -9 8 11 15 23 15 28 0 15 -7 8 -19 -19z"/>
</g>
</svg>
