<?xml version="1.0" encoding="utf-8"?>
<svg version="1.1" xmlns="http://www.w3.org/2000/svg" width="100%" height="100%" viewBox="0 0 280 40" preserveAspectRatio="xMinYMin meet">
	<defs>
		<style type="text/css">
			.fip_text {fill:#00F;}.fip_flag {fill:#F00;}.fip_dot {fill:#F00;}
		</style>
	</defs>
<g transform="translate(0.000000,40.000000) scale(0.030000,-0.028000)"
fill="#000000" stroke="none">
<path class="fip_text" d="M0 675 l0 -675 1500 0 1500 0 0 675 0 675 -1500 0 -1500 0 0 -675z
m1490 603 c22 -7 40 -16 40 -20 0 -5 6 -8 14 -8 17 0 26 -22 26 -61 0 -37 38
-59 73 -41 76 38 265 48 377 19 102 -27 201 -80 267 -144 76 -75 111 -138 125
-229 l11 -73 41 -6 c49 -9 136 -44 136 -56 0 -5 6 -9 14 -9 8 0 28 -12 45 -26
17 -14 36 -22 42 -18 8 5 9 3 5 -5 -5 -7 -1 -20 7 -29 33 -38 57 -102 57 -155
0 -142 -150 -280 -335 -307 -103 -14 -1811 -13 -1912 2 -43 6 -86 11 -95 12
-9 0 -15 3 -13 6 2 3 -21 18 -50 34 -110 57 -177 156 -174 256 2 59 30 126 70
170 27 29 103 83 134 94 30 12 174 46 193 46 11 0 27 22 45 60 33 70 104 145
173 182 63 34 200 68 274 68 32 0 71 7 86 15 16 8 41 15 55 15 14 0 33 8 42
18 14 16 14 19 -8 40 -12 12 -28 22 -33 22 -27 0 -26 89 1 91 6 0 28 11 47 24
29 20 48 24 108 24 40 1 90 -5 112 -11z"/>
<path class="fip_dot" d="M1324 1270 c-47 -11 -94 -48 -94 -74 0 -47 74 -86 165 -86 69 0 157
42 153 73 -10 75 -111 114 -224 87z"/>
<path class="fip_flag" d="M1454 1080 c-11 -4 -80 -14 -152 -21 l-132 -12 0 -44 0 -43 70 0 70
0 0 -50 c0 -54 -14 -69 -48 -55 -9 5 -26 10 -37 13 -31 8 -237 8 -270 0 -16
-4 -39 -9 -50 -11 -82 -19 -195 -103 -195 -146 0 -10 -7 -21 -15 -25 -10 -4
-15 -20 -15 -51 0 -31 5 -47 15 -51 8 -4 15 -12 15 -20 0 -22 22 -64 34 -64 7
0 18 -9 26 -21 16 -22 45 -37 125 -65 38 -14 81 -18 183 -19 77 0 136 4 140
10 4 6 26 10 50 10 l43 0 -3 -80 -3 -80 -37 -9 c-25 -6 -45 -6 -60 1 -43 21
-121 43 -152 43 -64 0 -136 -32 -136 -60 0 -22 56 -58 108 -71 74 -18 299 -18
372 0 96 24 170 68 170 101 0 10 7 20 15 24 11 4 15 21 15 61 l0 55 53 0 c87
0 97 6 97 56 l0 43 -47 3 -48 3 -3 118 c-2 108 -1 117 16 117 10 0 22 4 28 9
12 12 105 31 149 31 43 0 65 -9 65 -26 0 -8 5 -14 10 -14 6 0 10 -42 10 -106
0 -123 -6 -134 -74 -134 l-46 0 0 -45 0 -45 270 0 270 0 0 45 0 45 -54 0 c-88
0 -86 -3 -86 124 0 160 -6 183 -49 210 -96 61 -232 71 -426 32 -11 -2 -40 -11
-65 -20 -73 -26 -70 -30 -70 114 l0 130 -62 -1 c-35 0 -72 -4 -84 -9z m-216
-311 c26 -7 53 -16 60 -22 8 -6 12 -42 12 -113 l0 -103 -42 -13 c-24 -7 -75
-13 -114 -13 -62 0 -75 3 -107 28 -20 15 -37 36 -37 46 0 11 -7 21 -15 25 -9
3 -15 18 -15 36 0 18 6 33 15 36 8 4 15 14 15 24 0 23 30 49 77 66 47 16 91
17 151 3z"/>
<path class="fip_text" d="M4037 933 c-4 -3 -7 -57 -7 -120 l0 -113 -190 0 -190 0 0 -65 0 -65
180 0 c205 0 193 7 160 -91 -45 -132 -145 -241 -294 -317 l-58 -30 48 -55 c27
-30 54 -56 61 -56 24 -2 164 102 221 165 34 37 76 97 97 140 l37 75 34 -66
c63 -127 156 -225 274 -289 l47 -26 51 64 51 63 -84 42 c-137 68 -228 171
-282 317 l-23 64 190 0 190 0 0 65 0 65 -195 0 -194 0 6 120 6 120 -65 0 c-35
0 -68 -3 -71 -7z"/>
<path class="fip_text" d="M5028 931 c-58 -8 -61 -11 -49 -45 l11 -26 -180 0 -180 0 0 -120 0
-120 60 0 60 0 0 65 0 65 310 0 310 0 0 -65 0 -65 65 0 65 0 0 120 0 120 -177
2 -176 3 -12 35 c-13 39 -26 43 -107 31z"/>
<path class="fip_text" d="M5935 914 c-45 -38 -199 -110 -290 -135 -44 -11 -81 -22 -83 -24 -9
-8 44 -95 57 -95 9 1 55 16 104 34 48 18 87 29 87 24 0 -5 97 -9 233 -8 223 1
235 0 312 -24 44 -15 83 -26 87 -26 7 0 42 100 37 104 -2 1 -42 12 -89 25 -80
20 -205 72 -259 108 -23 15 -24 16 -6 29 16 12 7 14 -71 14 -81 -1 -92 -3
-119 -26z m138 -99 l52 -35 -104 0 -103 0 48 34 c27 19 50 34 52 35 1 1 26
-15 55 -34z"/>
<path class="fip_text" d="M4790 640 l0 -50 78 0 77 -1 -60 -25 c-63 -26 -197 -64 -226 -64 -30
0 -31 -18 -3 -60 32 -48 33 -48 184 7 108 40 135 44 135 23 0 -26 -125 -79
-332 -139 l-23 -6 31 -47 30 -46 67 23 c94 32 148 57 217 99 55 33 61 35 72
19 11 -14 7 -20 -26 -45 -79 -58 -213 -116 -398 -173 -8 -3 0 -23 23 -58 l35
-55 75 29 c41 16 88 36 105 45 17 8 32 14 34 12 2 -2 10 -28 17 -58 l14 -55
90 3 c157 6 200 48 197 197 0 44 -6 92 -12 107 -9 24 -8 29 10 39 11 6 22 9
23 7 1 -2 22 -43 46 -92 28 -58 64 -111 99 -148 l56 -59 50 51 50 51 -30 21
c-53 37 -119 113 -148 169 l-28 54 75 35 75 36 -36 52 -36 52 -31 -19 c-62
-38 -207 -111 -220 -111 -12 0 -82 88 -75 94 43 33 58 36 156 36 l103 0 0 50
0 50 -270 0 -270 0 0 -50z m290 -425 c0 -53 -36 -85 -94 -85 -82 0 -82 8 1 65
43 29 81 53 86 54 4 0 7 -15 7 -34z"/>
<path class="fip_text" d="M5702 578 l3 -93 318 -3 317 -2 0 95 0 95 -320 0 -321 0 3 -92z m526
0 c-3 -23 -4 -23 -205 -26 l-203 -2 0 25 0 25 206 0 205 0 -3 -22z"/>
<path class="fip_text" d="M5932 453 l-323 -3 6 -23 c4 -12 9 -30 11 -39 5 -16 22 -18 180 -18
148 0 174 -2 174 -15 0 -13 -26 -15 -170 -15 l-170 0 0 -35 0 -35 170 0 c163
0 170 -1 170 -20 0 -19 -7 -20 -205 -20 l-205 0 0 -40 0 -40 206 0 c182 0 205
-2 194 -15 -9 -11 -34 -15 -97 -15 l-85 0 6 -37 c14 -75 8 -71 104 -66 48 2
101 6 118 9 39 5 74 42 83 86 l7 33 182 3 182 2 0 40 0 40 -180 0 c-173 0
-180 1 -180 20 0 19 7 20 151 20 l150 0 -3 33 -3 32 -147 3 c-140 2 -148 4
-148 22 0 19 7 20 150 20 l150 0 0 24 c0 52 -7 56 -84 54 -39 -2 -216 -4 -394
-5z"/>
</g>
</svg>
