<?xml version="1.0" encoding="utf-8"?>
<svg version="1.1" xmlns="http://www.w3.org/2000/svg" width="100%" height="100%" viewBox="0 0 360 40" preserveAspectRatio="xMinYMin meet">
	<defs>
		<style type="text/css">
			.fip_text {fill:#00F;}.fip_flag {fill:#F00;}.fip_dot {fill:#999;}
		</style>
	</defs>
<g transform="translate(0.000000,40.000000) scale(0.030000,-0.028000)"
fill="#000000" stroke="none">
<path class="fip_text" d="M0 675 l0 -675 1500 0 1500 0 0 675 0 675 -1500 0 -1500 0 0 -675z
m1490 603 c22 -7 40 -16 40 -20 0 -5 6 -8 14 -8 17 0 26 -22 26 -61 0 -37 38
-59 73 -41 76 38 265 48 377 19 102 -27 201 -80 267 -144 76 -75 111 -138 125
-229 l11 -73 41 -6 c49 -9 136 -44 136 -56 0 -5 6 -9 14 -9 8 0 28 -12 45 -26
17 -14 36 -22 42 -18 8 5 9 3 5 -5 -5 -7 -1 -20 7 -29 33 -38 57 -102 57 -155
0 -142 -150 -280 -335 -307 -103 -14 -1811 -13 -1912 2 -43 6 -86 11 -95 12
-9 0 -15 3 -13 6 2 3 -21 18 -50 34 -110 57 -177 156 -174 256 2 59 30 126 70
170 27 29 103 83 134 94 30 12 174 46 193 46 11 0 27 22 45 60 33 70 104 145
173 182 63 34 200 68 274 68 32 0 71 7 86 15 16 8 41 15 55 15 14 0 33 8 42
18 14 16 14 19 -8 40 -12 12 -28 22 -33 22 -27 0 -26 89 1 91 6 0 28 11 47 24
29 20 48 24 108 24 40 1 90 -5 112 -11z"/>
<path class="fip_flag" d="M1324 1270 c-47 -11 -94 -48 -94 -74 0 -47 74 -86 165 -86 69 0 157
42 153 73 -10 75 -111 114 -224 87z"/>
<path class="fip_flag" d="M1454 1080 c-11 -4 -80 -14 -152 -21 l-132 -12 0 -44 0 -43 70 0 70
0 0 -50 c0 -54 -14 -69 -48 -55 -9 5 -26 10 -37 13 -31 8 -237 8 -270 0 -16
-4 -39 -9 -50 -11 -82 -19 -195 -103 -195 -146 0 -10 -7 -21 -15 -25 -10 -4
-15 -20 -15 -51 0 -31 5 -47 15 -51 8 -4 15 -12 15 -20 0 -22 22 -64 34 -64 7
0 18 -9 26 -21 16 -22 45 -37 125 -65 38 -14 81 -18 183 -19 77 0 136 4 140
10 4 6 26 10 50 10 l43 0 -3 -80 -3 -80 -37 -9 c-25 -6 -45 -6 -60 1 -43 21
-121 43 -152 43 -64 0 -136 -32 -136 -60 0 -22 56 -58 108 -71 74 -18 299 -18
372 0 96 24 170 68 170 101 0 10 7 20 15 24 11 4 15 21 15 61 l0 55 53 0 c87
0 97 6 97 56 l0 43 -47 3 -48 3 -3 118 c-2 108 -1 117 16 117 10 0 22 4 28 9
12 12 105 31 149 31 43 0 65 -9 65 -26 0 -8 5 -14 10 -14 6 0 10 -42 10 -106
0 -123 -6 -134 -74 -134 l-46 0 0 -45 0 -45 270 0 270 0 0 45 0 45 -54 0 c-88
0 -86 -3 -86 124 0 160 -6 183 -49 210 -96 61 -232 71 -426 32 -11 -2 -40 -11
-65 -20 -73 -26 -70 -30 -70 114 l0 130 -62 -1 c-35 0 -72 -4 -84 -9z m-216
-311 c26 -7 53 -16 60 -22 8 -6 12 -42 12 -113 l0 -103 -42 -13 c-24 -7 -75
-13 -114 -13 -62 0 -75 3 -107 28 -20 15 -37 36 -37 46 0 11 -7 21 -15 25 -9
3 -15 18 -15 36 0 18 6 33 15 36 8 4 15 14 15 24 0 23 30 49 77 66 47 16 91
17 151 3z"/>
<path class="fip_text" d="M4067 1183 c-4 -3 -7 -57 -7 -120 l0 -113 -190 0 -190 0 0 -65 0 -65
180 0 c205 0 193 7 160 -91 -45 -132 -145 -241 -294 -317 l-58 -30 48 -55 c27
-30 54 -56 61 -56 24 -2 164 102 221 165 34 37 76 97 97 140 l37 75 34 -66
c63 -127 156 -225 274 -289 l47 -26 51 64 51 63 -84 42 c-137 68 -228 171
-282 317 l-23 64 190 0 190 0 0 65 0 65 -195 0 -194 0 6 120 6 120 -65 0 c-35
0 -68 -3 -71 -7z"/>
<path class="fip_text" d="M5058 1181 c-58 -8 -61 -11 -49 -45 l11 -26 -180 0 -180 0 0 -120 0
-120 60 0 60 0 0 65 0 65 310 0 310 0 0 -65 0 -65 65 0 65 0 0 120 0 120 -177
2 -176 3 -12 35 c-13 39 -26 43 -107 31z"/>
<path class="fip_text" d="M5965 1164 c-45 -38 -199 -110 -290 -135 -44 -11 -81 -22 -83 -24 -9
-8 44 -95 57 -95 9 1 55 16 104 34 48 18 87 29 87 24 0 -5 97 -9 233 -8 223 1
235 0 312 -24 44 -15 83 -26 87 -26 7 0 42 100 37 104 -2 1 -42 12 -89 25 -80
20 -205 72 -259 108 -23 15 -24 16 -6 29 16 12 7 14 -71 14 -81 -1 -92 -3
-119 -26z m138 -99 l52 -35 -104 0 -103 0 48 34 c27 19 50 34 52 35 1 1 26
-15 55 -34z"/>
<path class="fip_text" d="M4820 890 l0 -50 78 0 77 -1 -60 -25 c-63 -26 -197 -64 -226 -64 -30
0 -31 -18 -3 -60 32 -48 33 -48 184 7 108 40 135 44 135 23 0 -26 -125 -79
-332 -139 l-23 -6 31 -47 30 -46 67 23 c94 32 148 57 217 99 55 33 61 35 72
19 11 -14 7 -20 -26 -45 -79 -58 -213 -116 -398 -173 -8 -3 0 -23 23 -58 l35
-55 75 29 c41 16 88 36 105 45 17 8 32 14 34 12 2 -2 10 -28 17 -58 l14 -55
90 3 c157 6 200 48 197 197 0 44 -6 92 -12 107 -9 24 -8 29 10 39 11 6 22 9
23 7 1 -2 22 -43 46 -92 28 -58 64 -111 99 -148 l56 -59 50 51 50 51 -30 21
c-53 37 -119 113 -148 169 l-28 54 75 35 75 36 -36 52 -36 52 -31 -19 c-62
-38 -207 -111 -220 -111 -12 0 -82 88 -75 94 43 33 58 36 156 36 l103 0 0 50
0 50 -270 0 -270 0 0 -50z m290 -425 c0 -53 -36 -85 -94 -85 -82 0 -82 8 1 65
43 29 81 53 86 54 4 0 7 -15 7 -34z"/>
<path class="fip_text" d="M5732 828 l3 -93 318 -3 317 -2 0 95 0 95 -320 0 -321 0 3 -92z m526
0 c-3 -23 -4 -23 -205 -26 l-203 -2 0 25 0 25 206 0 205 0 -3 -22z"/>
<path class="fip_text" d="M5962 703 l-323 -3 6 -23 c4 -12 9 -30 11 -39 5 -16 22 -18 180 -18
148 0 174 -2 174 -15 0 -13 -26 -15 -170 -15 l-170 0 0 -35 0 -35 170 0 c163
0 170 -1 170 -20 0 -19 -7 -20 -205 -20 l-205 0 0 -40 0 -40 206 0 c182 0 205
-2 194 -15 -9 -11 -34 -15 -97 -15 l-85 0 6 -37 c14 -75 8 -71 104 -66 48 2
101 6 118 9 39 5 74 42 83 86 l7 33 182 3 182 2 0 40 0 40 -180 0 c-173 0
-180 1 -180 20 0 19 7 20 151 20 l150 0 -3 33 -3 32 -147 3 c-140 2 -148 4
-148 22 0 19 7 20 150 20 l150 0 0 24 c0 52 -7 56 -84 54 -39 -2 -216 -4 -394
-5z"/>
<path class="fip_dot" d="M6744 571 c-9 -16 -32 -36 -50 -45 -32 -15 -43 -34 -28 -49 4 -3 16
-2 26 4 14 8 23 8 31 0 8 -8 5 -11 -11 -11 -19 0 -22 -5 -22 -40 0 -33 3 -40
20 -40 13 0 20 7 20 20 0 13 7 20 20 20 46 0 4 -45 -52 -55 -40 -8 -43 -11
-29 -33 7 -11 17 -11 52 -2 24 7 49 16 55 21 7 5 29 3 58 -7 46 -16 76 -14 76
5 0 5 -12 14 -27 19 -18 7 -22 11 -10 11 13 1 17 10 17 37 0 19 7 43 16 52 15
15 15 17 -12 25 -49 16 -74 47 -38 47 8 0 13 -4 10 -9 -3 -5 2 -12 11 -15 18
-7 33 9 33 37 0 14 -9 17 -60 17 -33 0 -60 4 -60 10 0 21 -30 9 -46 -19z m50
-36 c-6 -16 -35 -35 -52 -35 -6 0 -13 7 -16 16 -4 11 -1 14 13 9 12 -3 21 0
25 10 3 8 12 15 20 15 10 0 13 -6 10 -15z m50 -50 c18 -14 17 -15 -24 -15 -41
0 -42 1 -24 15 10 8 21 14 24 14 3 0 14 -6 24 -14z m6 -76 c0 -14 -5 -19 -17
-17 -26 5 -29 38 -4 38 15 0 21 -6 21 -21z"/>
<path class="fip_dot"  d="M7257 593 c-4 -3 -7 -15 -7 -25 0 -13 -7 -18 -26 -18 -33 0 -30 -33
4 -38 35 -5 31 -50 -5 -54 -17 -2 -29 -10 -31 -20 -3 -16 6 -18 83 -18 78 0
86 -2 81 -17 -4 -13 5 -24 35 -41 37 -21 43 -22 56 -9 14 14 11 18 -28 39
l-44 23 43 3 c34 3 42 7 42 23 0 14 -7 19 -30 19 -25 0 -30 4 -30 25 0 20 5
25 25 25 18 0 25 5 25 20 0 15 -7 20 -24 20 -18 0 -25 6 -28 22 -5 34 -38 37
-38 4 0 -23 -4 -26 -35 -26 -31 0 -35 3 -35 25 0 24 -18 34 -33 18z m103 -108
c0 -22 -4 -25 -35 -25 -31 0 -35 3 -35 25 0 22 4 25 35 25 31 0 35 -3 35 -25z"/>
<path class="fip_dot"  d="M7580 590 c-8 -5 -36 -10 -62 -10 -41 0 -48 -3 -48 -20 0 -11 7 -20
15 -20 10 0 15 -11 15 -35 l0 -35 95 0 95 0 0 34 c0 26 5 35 21 39 38 10 15
32 -37 35 -27 2 -53 7 -58 13 -12 11 -17 11 -36 -1z m53 -87 c-18 -2 -48 -2
-65 0 -18 2 -4 4 32 4 36 0 50 -2 33 -4z"/>
<path class="fip_dot"  d="M8157 593 c-9 -3 -15 -9 -12 -14 4 -5 -10 -9 -29 -9 -20 0 -36 5 -36
11 0 6 -7 9 -16 7 -20 -4 -65 -119 -57 -148 4 -16 8 -18 14 -8 5 8 9 -10 9
-45 0 -50 2 -58 18 -55 14 3 18 19 23 113 3 61 6 104 7 98 1 -9 29 -13 98 -13
86 0 95 2 92 18 -2 11 -14 18 -38 20 -18 2 -39 9 -44 16 -6 7 -19 11 -29 9z"/>
<path class="fip_dot"  d="M8380 592 c0 -6 -17 -12 -37 -14 l-38 -3 -3 -72 -3 -73 46 0 c31 0
45 -4 45 -14 0 -19 23 -36 38 -27 7 4 10 15 6 24 -5 14 0 17 32 16 22 0 33 -3
27 -6 -7 -2 -13 -11 -13 -19 0 -7 -6 -11 -14 -8 -7 3 -16 -2 -19 -10 -4 -10
-18 -16 -37 -16 -25 0 -30 4 -30 25 0 19 -5 25 -21 25 -17 0 -20 -5 -17 -37
l3 -38 62 -3 c55 -3 62 -1 68 18 5 17 10 19 21 10 7 -7 19 -10 26 -7 7 2 21
-2 30 -10 19 -17 41 -12 78 17 20 15 22 21 13 31 -10 10 -21 8 -54 -11 l-42
-23 -18 24 c-15 19 -19 42 -19 105 l0 82 -42 5 c-24 2 -53 8 -65 12 -14 4 -23
3 -23 -3z m68 -59 c-21 -2 -55 -2 -75 0 -21 2 -4 4 37 4 41 0 58 -2 38 -4z m0
-30 c-21 -2 -55 -2 -75 0 -21 2 -4 4 37 4 41 0 58 -2 38 -4z m0 -40 c-21 -2
-55 -2 -75 0 -21 2 -4 4 37 4 41 0 58 -2 38 -4z"/>
<path class="fip_dot"  d="M8607 593 c-4 -3 -7 -15 -7 -25 0 -13 -7 -18 -26 -18 -33 0 -30 -33
4 -38 35 -5 31 -50 -5 -54 -17 -2 -29 -10 -31 -20 -3 -16 6 -18 83 -18 78 0
86 -2 81 -17 -4 -13 5 -24 35 -41 37 -21 43 -22 56 -9 14 14 11 18 -28 39
l-44 23 43 3 c34 3 42 7 42 23 0 14 -7 19 -30 19 -25 0 -30 4 -30 25 0 20 5
25 25 25 18 0 25 5 25 20 0 15 -7 20 -24 20 -18 0 -25 6 -28 22 -5 34 -38 37
-38 4 0 -23 -4 -26 -35 -26 -31 0 -35 3 -35 25 0 24 -18 34 -33 18z m103 -108
c0 -22 -4 -25 -35 -25 -31 0 -35 3 -35 25 0 22 4 25 35 25 31 0 35 -3 35 -25z"/>
<path class="fip_dot"  d="M8930 590 c-8 -5 -36 -10 -62 -10 -41 0 -48 -3 -48 -20 0 -11 7 -20
15 -20 10 0 15 -11 15 -35 l0 -35 95 0 95 0 0 34 c0 26 5 35 21 39 38 10 15
32 -37 35 -27 2 -53 7 -58 13 -12 11 -17 11 -36 -1z m53 -87 c-18 -2 -48 -2
-65 0 -18 2 -4 4 32 4 36 0 50 -2 33 -4z"/>
<path class="fip_dot"  d="M9683 589 c-9 -9 -10 -16 -2 -26 9 -10 5 -13 -20 -13 -24 0 -31 -4
-31 -20 0 -16 7 -20 38 -20 l37 -1 -37 -20 c-38 -20 -46 -33 -28 -44 16 -10
12 -57 -7 -70 -9 -7 -13 -17 -9 -23 9 -15 266 -17 266 -2 0 6 7 6 19 -2 15 -9
25 -7 55 11 60 37 36 68 -25 32 -46 -27 -79 -19 -79 20 0 15 5 31 10 34 19 12
10 31 -22 48 l-33 16 38 0 c31 1 38 4 35 19 -2 10 -14 18 -31 20 -23 3 -26 6
-16 18 20 25 -19 30 -45 5 -30 -28 -52 -27 -79 5 -17 20 -25 23 -34 13z m92
-89 c-3 -5 7 -16 22 -24 27 -15 26 -15 -37 -15 -55 0 -61 2 -42 11 13 7 21 17
18 25 -4 9 3 13 20 13 14 0 23 -4 19 -10z m-65 -95 c0 -14 -4 -25 -10 -25 -5
0 -10 11 -10 25 0 14 5 25 10 25 6 0 10 -11 10 -25z m60 0 c0 -14 -4 -25 -10
-25 -5 0 -10 11 -10 25 0 14 5 25 10 25 6 0 10 -11 10 -25z m50 0 c0 -14 -4
-25 -10 -25 -11 0 -14 33 -3 43 11 11 13 8 13 -18z"/>
<path class="fip_dot"  d="M9957 593 c-4 -3 -7 -15 -7 -25 0 -13 -7 -18 -26 -18 -33 0 -30 -33
4 -38 35 -5 31 -50 -5 -54 -17 -2 -29 -10 -31 -20 -3 -16 6 -18 83 -18 78 0
86 -2 81 -17 -4 -13 5 -24 35 -41 37 -21 43 -22 56 -9 14 14 11 18 -28 39
l-44 23 43 3 c34 3 42 7 42 23 0 14 -7 19 -30 19 -25 0 -30 4 -30 25 0 20 5
25 25 25 18 0 25 5 25 20 0 15 -7 20 -24 20 -18 0 -25 6 -28 22 -5 34 -38 37
-38 4 0 -23 -4 -26 -35 -26 -31 0 -35 3 -35 25 0 24 -18 34 -33 18z m103 -108
c0 -22 -4 -25 -35 -25 -31 0 -35 3 -35 25 0 22 4 25 35 25 31 0 35 -3 35 -25z"/>
<path class="fip_dot"  d="M10280 590 c-8 -5 -36 -10 -62 -10 -41 0 -48 -3 -48 -20 0 -11 7 -20
15 -20 10 0 15 -11 15 -35 l0 -35 95 0 95 0 0 34 c0 26 5 35 21 39 38 10 15
32 -37 35 -27 2 -53 7 -58 13 -12 11 -17 11 -36 -1z m53 -87 c-18 -2 -48 -2
-65 0 -18 2 -4 4 32 4 36 0 50 -2 33 -4z"/>
<path class="fip_dot"  d="M6665 579 c-6 -9 21 -38 37 -39 14 0 19 21 8 35 -15 18 -36 19 -45 4z"/>
<path class="fip_dot" d="M6935 579 c-6 -9 21 -38 37 -39 17 0 19 24 3 37 -23 16 -32 16 -40 2z"/>
<path class="fip_dot" d="M7000 510 c0 -77 -1 -80 -19 -70 -28 14 -27 15 -40 -34 -15 -60 -14
-66 8 -66 13 0 21 12 29 43 10 38 11 38 6 6 -3 -24 0 -40 10 -48 11 -9 15 -8
19 3 6 16 47 11 59 -8 12 -18 58 11 58 36 1 23 1 23 16 3 8 -11 20 -19 27 -17
6 2 21 -2 33 -9 19 -10 28 -8 58 11 62 38 35 66 -28 29 -34 -20 -39 -20 -53
-6 -12 12 -16 33 -14 81 l2 66 -32 0 c-40 0 -27 17 16 22 19 2 30 9 30 18 0
12 -18 16 -92 18 l-93 3 0 -81z m80 30 c0 -5 -7 -10 -15 -10 -12 0 -15 -13
-15 -55 0 -48 2 -55 20 -55 15 0 20 -7 20 -25 0 -14 -4 -25 -9 -25 -5 0 -7 9
-4 20 7 26 -14 26 -36 -1 -15 -19 -16 -15 -7 70 8 78 12 91 28 91 10 0 18 -4
18 -10z m48 -47 c-10 -2 -26 -2 -35 0 -10 3 -2 5 17 5 19 0 27 -2 18 -5z m0
-40 c-10 -2 -26 -2 -35 0 -10 3 -2 5 17 5 19 0 27 -2 18 -5z"/>
<path class="fip_dot"  d="M9403 583 c-35 -3 -43 -8 -43 -24 0 -14 7 -19 25 -19 14 0 25 -4 25
-10 0 -5 -14 -10 -31 -10 -24 0 -30 -4 -27 -17 2 -10 13 -19 26 -21 27 -4 27
-10 -2 -46 -14 -16 -21 -36 -19 -47 7 -24 11 -24 34 4 l18 22 1 -42 c0 -36 3
-43 20 -43 17 0 20 7 20 47 0 36 3 44 12 35 8 -8 15 -9 25 -1 9 8 13 8 13 0 0
-6 9 -11 20 -11 18 0 20 7 20 85 0 78 -2 85 -20 85 -15 0 -20 -7 -20 -25 0
-20 -5 -25 -25 -25 -16 0 -25 6 -25 15 0 8 9 15 20 15 13 0 20 7 20 20 0 21 2
21 -87 13z m97 -123 l0 -31 -25 18 c-30 22 -31 30 -2 36 12 2 23 5 25 6 1 0 2
-13 2 -29z"/>
<path class="fip_dot"  d="M9568 483 c-3 -104 -4 -108 -26 -111 -15 -2 -22 -9 -20 -20 3 -13 12
-16 38 -14 19 2 38 9 42 15 4 7 8 63 8 125 0 105 -1 112 -20 112 -18 0 -20 -8
-22 -107z"/>
<path class="fip_dot"  d="M6935 509 c-4 -5 1 -19 11 -30 17 -19 19 -19 31 -3 10 14 10 19 -5
30 -21 16 -29 17 -37 3z"/>
<path class="fip_dot"  d="M8090 505 c0 -12 16 -15 80 -15 64 0 80 3 80 15 0 12 -16 15 -80 15
-64 0 -80 -3 -80 -15z"/>
<path class="fip_dot"  d="M8090 465 c0 -12 16 -15 80 -15 64 0 80 3 80 15 0 12 -16 15 -80 15
-64 0 -80 -3 -80 -15z"/>
<path class="fip_dot"  d="M7480 445 c0 -12 15 -15 73 -16 90 -1 62 -17 -31 -18 -83 -1 -80 -24
4 -32 32 -3 47 -6 32 -7 -18 -1 -28 -8 -28 -17 0 -35 78 -30 87 5 4 17 14 20
59 20 41 0 54 4 54 15 0 10 -10 15 -32 15 -27 1 -30 2 -15 11 9 5 17 17 17 24
0 12 -21 15 -110 15 -91 0 -110 -3 -110 -15z"/>
<path class="fip_dot"  d="M8830 445 c0 -12 15 -15 73 -16 90 -1 62 -17 -31 -18 -83 -1 -80 -24
4 -32 32 -3 47 -6 32 -7 -18 -1 -28 -8 -28 -17 0 -35 78 -30 87 5 4 17 14 20
59 20 41 0 54 4 54 15 0 10 -10 15 -32 15 -27 1 -30 2 -15 11 9 5 17 17 17 24
0 12 -21 15 -110 15 -91 0 -110 -3 -110 -15z"/>
<path class="fip_dot"  d="M10180 445 c0 -12 15 -15 73 -16 90 -1 62 -17 -31 -18 -83 -1 -80
-24 4 -32 32 -3 47 -6 32 -7 -18 -1 -28 -8 -28 -17 0 -35 78 -30 87 5 4 17 14
20 59 20 41 0 54 4 54 15 0 10 -10 15 -32 15 -27 1 -30 2 -15 11 9 5 17 17 17
24 0 12 -21 15 -110 15 -91 0 -110 -3 -110 -15z"/>
<path class="fip_dot"  d="M8090 385 c0 -48 2 -55 20 -55 11 0 20 5 20 10 0 6 18 10 40 10 22 0
40 -4 40 -10 0 -5 9 -10 20 -10 18 0 20 7 20 55 l0 55 -80 0 -80 0 0 -55z
m120 5 c0 -5 -18 -10 -40 -10 -22 0 -40 5 -40 10 0 6 18 10 40 10 22 0 40 -4
40 -10z"/>
<path class="fip_dot"  d="M8283 391 c-9 -24 -8 -31 5 -36 17 -6 15 -7 31 23 7 12 9 27 6 32
-12 19 -31 10 -42 -19z"/>
<path class="fip_dot"  d="M7846 398 c-17 -53 -16 -68 3 -68 13 0 21 11 29 40 9 36 8 40 -9 40
-11 0 -21 -6 -23 -12z"/>
<path class="fip_dot"  d="M9196 398 c-17 -53 -16 -68 3 -68 13 0 21 11 29 40 9 36 8 40 -9 40
-11 0 -21 -6 -23 -12z"/>
</g>
</svg>
