<?xml version="1.0" encoding="utf-8"?>
<svg version="1.1" xmlns="http://www.w3.org/2000/svg" width="100%" height="100%" viewBox="0 0 360 40" preserveAspectRatio="xMinYMin meet">
	<defs>
		<style type="text/css">
			.fip_text {fill:#00F;}.fip_flag {fill:#F00;}.fip_dot {fill:#999;}
		</style>
	</defs>
<g transform="translate(0.000000,40.000000) scale(0.030000,-0.028000)"
fill="#000000" stroke="none">
<path class="fip_text" d="M0 675 l0 -675 1500 0 1500 0 0 675 0 675 -1500 0 -1500 0 0 -675z
m1490 603 c22 -7 40 -16 40 -20 0 -5 6 -8 14 -8 17 0 26 -22 26 -61 0 -37 38
-59 73 -41 76 38 265 48 377 19 102 -27 201 -80 267 -144 76 -75 111 -138 125
-229 l11 -73 41 -6 c49 -9 136 -44 136 -56 0 -5 6 -9 14 -9 8 0 28 -12 45 -26
17 -14 36 -22 42 -18 8 5 9 3 5 -5 -5 -7 -1 -20 7 -29 33 -38 57 -102 57 -155
0 -142 -150 -280 -335 -307 -103 -14 -1811 -13 -1912 2 -43 6 -86 11 -95 12
-9 0 -15 3 -13 6 2 3 -21 18 -50 34 -110 57 -177 156 -174 256 2 59 30 126 70
170 27 29 103 83 134 94 30 12 174 46 193 46 11 0 27 22 45 60 33 70 104 145
173 182 63 34 200 68 274 68 32 0 71 7 86 15 16 8 41 15 55 15 14 0 33 8 42
18 14 16 14 19 -8 40 -12 12 -28 22 -33 22 -27 0 -26 89 1 91 6 0 28 11 47 24
29 20 48 24 108 24 40 1 90 -5 112 -11z"/>
<path class="fip_flag" d="M1324 1270 c-47 -11 -94 -48 -94 -74 0 -47 74 -86 165 -86 69 0 157
42 153 73 -10 75 -111 114 -224 87z"/>
<path  class="fip_flag" d="M1454 1080 c-11 -4 -80 -14 -152 -21 l-132 -12 0 -44 0 -43 70 0 70
0 0 -50 c0 -54 -14 -69 -48 -55 -9 5 -26 10 -37 13 -31 8 -237 8 -270 0 -16
-4 -39 -9 -50 -11 -82 -19 -195 -103 -195 -146 0 -10 -7 -21 -15 -25 -10 -4
-15 -20 -15 -51 0 -31 5 -47 15 -51 8 -4 15 -12 15 -20 0 -22 22 -64 34 -64 7
0 18 -9 26 -21 16 -22 45 -37 125 -65 38 -14 81 -18 183 -19 77 0 136 4 140
10 4 6 26 10 50 10 l43 0 -3 -80 -3 -80 -37 -9 c-25 -6 -45 -6 -60 1 -43 21
-121 43 -152 43 -64 0 -136 -32 -136 -60 0 -22 56 -58 108 -71 74 -18 299 -18
372 0 96 24 170 68 170 101 0 10 7 20 15 24 11 4 15 21 15 61 l0 55 53 0 c87
0 97 6 97 56 l0 43 -47 3 -48 3 -3 118 c-2 108 -1 117 16 117 10 0 22 4 28 9
12 12 105 31 149 31 43 0 65 -9 65 -26 0 -8 5 -14 10 -14 6 0 10 -42 10 -106
0 -123 -6 -134 -74 -134 l-46 0 0 -45 0 -45 270 0 270 0 0 45 0 45 -54 0 c-88
0 -86 -3 -86 124 0 160 -6 183 -49 210 -96 61 -232 71 -426 32 -11 -2 -40 -11
-65 -20 -73 -26 -70 -30 -70 114 l0 130 -62 -1 c-35 0 -72 -4 -84 -9z m-216
-311 c26 -7 53 -16 60 -22 8 -6 12 -42 12 -113 l0 -103 -42 -13 c-24 -7 -75
-13 -114 -13 -62 0 -75 3 -107 28 -20 15 -37 36 -37 46 0 11 -7 21 -15 25 -9
3 -15 18 -15 36 0 18 6 33 15 36 8 4 15 14 15 24 0 23 30 49 77 66 47 16 91
17 151 3z"/>
<path  class="fip_text" d="M4067 1183 c-4 -3 -7 -57 -7 -120 l0 -113 -190 0 -190 0 0 -65 0 -65
180 0 c205 0 193 7 160 -91 -45 -132 -145 -241 -294 -317 l-58 -30 48 -55 c27
-30 54 -56 61 -56 24 -2 164 102 221 165 34 37 76 97 97 140 l37 75 34 -66
c63 -127 156 -225 274 -289 l47 -26 51 64 51 63 -84 42 c-137 68 -228 171
-282 317 l-23 64 190 0 190 0 0 65 0 65 -195 0 -194 0 6 120 6 120 -65 0 c-35
0 -68 -3 -71 -7z"/>
<path class="fip_text" d="M5058 1181 c-58 -8 -61 -11 -49 -45 l11 -26 -180 0 -180 0 0 -120 0
-120 60 0 60 0 0 65 0 65 310 0 310 0 0 -65 0 -65 65 0 65 0 0 120 0 120 -177
2 -176 3 -12 35 c-13 39 -26 43 -107 31z"/>
<path class="fip_text" d="M5965 1164 c-45 -38 -199 -110 -290 -135 -44 -11 -81 -22 -83 -24 -9
-8 44 -95 57 -95 9 1 55 16 104 34 48 18 87 29 87 24 0 -5 97 -9 233 -8 223 1
235 0 312 -24 44 -15 83 -26 87 -26 7 0 42 100 37 104 -2 1 -42 12 -89 25 -80
20 -205 72 -259 108 -23 15 -24 16 -6 29 16 12 7 14 -71 14 -81 -1 -92 -3
-119 -26z m138 -99 l52 -35 -104 0 -103 0 48 34 c27 19 50 34 52 35 1 1 26
-15 55 -34z"/>
<path class="fip_text" d="M4820 890 l0 -50 78 0 77 -1 -60 -25 c-63 -26 -197 -64 -226 -64 -30
0 -31 -18 -3 -60 32 -48 33 -48 184 7 108 40 135 44 135 23 0 -26 -125 -79
-332 -139 l-23 -6 31 -47 30 -46 67 23 c94 32 148 57 217 99 55 33 61 35 72
19 11 -14 7 -20 -26 -45 -79 -58 -213 -116 -398 -173 -8 -3 0 -23 23 -58 l35
-55 75 29 c41 16 88 36 105 45 17 8 32 14 34 12 2 -2 10 -28 17 -58 l14 -55
90 3 c157 6 200 48 197 197 0 44 -6 92 -12 107 -9 24 -8 29 10 39 11 6 22 9
23 7 1 -2 22 -43 46 -92 28 -58 64 -111 99 -148 l56 -59 50 51 50 51 -30 21
c-53 37 -119 113 -148 169 l-28 54 75 35 75 36 -36 52 -36 52 -31 -19 c-62
-38 -207 -111 -220 -111 -12 0 -82 88 -75 94 43 33 58 36 156 36 l103 0 0 50
0 50 -270 0 -270 0 0 -50z m290 -425 c0 -53 -36 -85 -94 -85 -82 0 -82 8 1 65
43 29 81 53 86 54 4 0 7 -15 7 -34z"/>
<path class="fip_text" d="M5732 828 l3 -93 318 -3 317 -2 0 95 0 95 -320 0 -321 0 3 -92z m526
0 c-3 -23 -4 -23 -205 -26 l-203 -2 0 25 0 25 206 0 205 0 -3 -22z"/>
<path class="fip_text"  d="M5962 703 l-323 -3 6 -23 c4 -12 9 -30 11 -39 5 -16 22 -18 180 -18
148 0 174 -2 174 -15 0 -13 -26 -15 -170 -15 l-170 0 0 -35 0 -35 170 0 c163
0 170 -1 170 -20 0 -19 -7 -20 -205 -20 l-205 0 0 -40 0 -40 206 0 c182 0 205
-2 194 -15 -9 -11 -34 -15 -97 -15 l-85 0 6 -37 c14 -75 8 -71 104 -66 48 2
101 6 118 9 39 5 74 42 83 86 l7 33 182 3 182 2 0 40 0 40 -180 0 c-173 0
-180 1 -180 20 0 19 7 20 151 20 l150 0 -3 33 -3 32 -147 3 c-140 2 -148 4
-148 22 0 19 7 20 150 20 l150 0 0 24 c0 52 -7 56 -84 54 -39 -2 -216 -4 -394
-5z"/>
<path  class="fip_dot" d="M7697 613 c-4 -3 -7 -15 -7 -25 0 -13 -7 -18 -26 -18 -33 0 -30 -33
4 -38 35 -5 31 -50 -5 -54 -17 -2 -29 -10 -31 -20 -3 -16 6 -18 83 -18 78 0
86 -2 81 -17 -4 -13 5 -24 35 -41 37 -21 43 -22 56 -9 14 14 11 18 -28 39
l-44 23 43 3 c34 3 42 7 42 23 0 14 -7 19 -30 19 -25 0 -30 4 -30 25 0 20 5
25 25 25 18 0 25 5 25 20 0 15 -7 20 -24 20 -18 0 -25 6 -28 22 -5 34 -38 37
-38 4 0 -23 -4 -26 -35 -26 -31 0 -35 3 -35 25 0 24 -18 34 -33 18z m103 -108
c0 -22 -4 -25 -35 -25 -31 0 -35 3 -35 25 0 22 4 25 35 25 31 0 35 -3 35 -25z"/>
<path  class="fip_dot" d="M8020 610 c-8 -5 -36 -10 -62 -10 -41 0 -48 -3 -48 -20 0 -11 7 -20
15 -20 10 0 15 -11 15 -35 l0 -35 95 0 95 0 0 34 c0 26 5 35 21 39 38 10 15
32 -37 35 -27 2 -53 7 -58 13 -12 11 -17 11 -36 -1z m53 -87 c-18 -2 -48 -2
-65 0 -18 2 -4 4 32 4 36 0 50 -2 33 -4z"/>
<path  class="fip_dot" d="M8579 589 c-15 -21 -26 -28 -39 -24 -13 4 -22 -1 -30 -15 -6 -12 -14
-19 -17 -16 -3 3 2 17 11 30 21 32 20 46 -1 46 -11 -1 -27 -18 -39 -43 -22
-45 -21 -67 2 -67 12 0 12 -4 -2 -25 -8 -13 -13 -29 -9 -35 10 -15 62 -12 79
6 15 14 16 14 16 -4 0 -16 -9 -21 -50 -27 -54 -7 -63 -14 -50 -35 7 -11 18
-12 54 -3 40 9 46 8 46 -6 0 -14 11 -17 69 -17 l69 1 4 55 c2 30 8 63 12 73 6
13 4 17 -12 17 -30 0 -35 15 -12 35 11 10 20 26 20 37 0 14 -8 18 -35 18 -19
0 -35 4 -35 9 0 24 -31 18 -51 -10z m59 -45 c-9 -9 -21 -13 -27 -10 -20 13
-11 26 16 26 25 0 26 -1 11 -16z m-58 -36 c0 -4 -10 -8 -22 -10 -13 -2 -22 -9
-20 -16 1 -6 -7 -12 -18 -12 -19 0 -19 0 1 35 18 30 23 33 40 22 10 -6 19 -15
19 -19z m85 -38 c14 -6 2 -9 -40 -9 -42 0 -54 3 -40 9 11 5 29 9 40 9 11 0 29
-4 40 -9z m-15 -55 c0 -10 -10 -15 -30 -15 -20 0 -30 5 -30 15 0 10 10 15 30
15 20 0 30 -5 30 -15z"/>
<path  class="fip_dot" d="M9047 613 c-4 -3 -7 -15 -7 -25 0 -13 -7 -18 -26 -18 -33 0 -30 -33
4 -38 35 -5 31 -50 -5 -54 -17 -2 -29 -10 -31 -20 -3 -16 6 -18 83 -18 78 0
86 -2 81 -17 -4 -13 5 -24 35 -41 37 -21 43 -22 56 -9 14 14 11 18 -28 39
l-44 23 43 3 c34 3 42 7 42 23 0 14 -7 19 -30 19 -25 0 -30 4 -30 25 0 20 5
25 25 25 18 0 25 5 25 20 0 15 -7 20 -24 20 -18 0 -25 6 -28 22 -5 34 -38 37
-38 4 0 -23 -4 -26 -35 -26 -31 0 -35 3 -35 25 0 24 -18 34 -33 18z m103 -108
c0 -22 -4 -25 -35 -25 -31 0 -35 3 -35 25 0 22 4 25 35 25 31 0 35 -3 35 -25z"/>
<path  class="fip_dot" d="M9370 610 c-8 -5 -36 -10 -62 -10 -41 0 -48 -3 -48 -20 0 -11 7 -20
15 -20 10 0 15 -11 15 -35 l0 -35 95 0 95 0 0 34 c0 26 5 35 21 39 38 10 15
32 -37 35 -27 2 -53 7 -58 13 -12 11 -17 11 -36 -1z m53 -87 c-18 -2 -48 -2
-65 0 -18 2 -4 4 32 4 36 0 50 -2 33 -4z"/>
<path  class="fip_dot" d="M9960 560 c0 -53 -2 -60 -20 -60 -17 0 -20 -7 -20 -40 0 -28 -4 -40
-14 -40 -11 0 -12 8 -5 42 6 23 8 47 5 55 -3 7 -1 13 4 13 6 0 10 9 10 20 0
13 -7 20 -19 20 -10 0 -21 9 -24 20 -3 12 -14 20 -27 20 -17 0 -20 -4 -15 -20
5 -16 2 -20 -14 -20 -14 0 -21 -6 -21 -20 0 -16 7 -20 35 -20 32 0 35 -3 35
-27 0 -47 -17 -60 -24 -19 -5 27 -12 36 -27 36 -15 0 -19 -5 -15 -17 2 -10 7
-33 11 -51 6 -27 10 -32 27 -26 14 4 18 2 14 -5 -4 -6 -17 -11 -30 -11 -28 0
-36 -8 -29 -26 6 -16 44 -18 91 -5 28 9 32 7 32 -10 0 -20 24 -26 35 -9 3 6
17 10 31 10 13 0 24 -4 24 -10 0 -5 9 -10 20 -10 18 0 20 7 20 75 0 73 -1 75
-25 75 -35 0 -33 28 2 32 17 2 29 10 31 21 3 13 -3 17 -27 17 -26 0 -31 4 -31
25 0 18 -5 25 -20 25 -18 0 -20 -7 -20 -60z m50 -125 c0 -20 -5 -25 -25 -25
-20 0 -25 5 -25 25 0 20 5 25 25 25 20 0 25 -5 25 -25z"/>
<path  class="fip_dot" d="M8184 597 c-2 -7 -3 -65 -2 -127 3 -100 5 -115 21 -118 12 -2 17 3
17 17 0 12 6 21 13 21 8 0 18 10 24 22 l10 23 12 -23 c15 -28 34 -28 54 1 14
19 16 20 16 4 1 -14 6 -17 22 -12 15 5 19 4 15 -4 -4 -6 -16 -11 -27 -11 -14
0 -19 -6 -17 -17 4 -24 34 -28 64 -8 24 16 25 18 22 128 l-3 112 -118 3 c-91
2 -119 0 -123 -11z m206 -37 c0 -5 -7 -7 -15 -4 -8 4 -17 -1 -21 -10 -8 -20
-24 -21 -24 -1 0 9 -9 15 -25 15 -16 0 -25 -6 -25 -15 0 -20 -16 -19 -24 1 -4
9 -13 14 -21 10 -8 -3 -15 -1 -15 4 0 6 37 10 85 10 48 0 85 -4 85 -10z m-154
-107 c-15 -28 -15 -27 -15 27 0 54 0 55 15 28 13 -25 13 -31 0 -55z m154 20
c-1 -57 -1 -57 -14 -28 -9 21 -10 38 -3 58 5 15 11 27 13 27 2 0 4 -26 4 -57z
m-75 -10 c-6 -24 -8 -26 -16 -10 -6 10 -7 27 -4 38 10 32 29 6 20 -28z"/>
<path  class="fip_dot" d="M9550 580 c0 -19 7 -20 105 -20 98 0 105 1 105 20 0 19 -7 20 -105
20 -98 0 -105 -1 -105 -20z"/>
<path  class="fip_dot" d="M9530 500 c0 -17 7 -20 42 -20 l42 0 -39 -40 c-59 -61 -47 -71 89
-72 61 -1 111 2 113 8 2 5 -14 28 -35 52 -27 32 -42 42 -55 37 -16 -7 -16 -9
-2 -31 l15 -24 -46 0 -47 0 25 33 c24 30 30 32 92 35 58 3 66 5 66 22 0 19 -8
20 -130 20 -123 0 -130 -1 -130 -20z"/>
<path  class="fip_dot" d="M7920 465 c0 -12 15 -15 73 -16 90 -1 62 -17 -31 -18 -83 -1 -80 -24
4 -32 32 -3 47 -6 32 -7 -18 -1 -28 -8 -28 -17 0 -35 78 -30 87 5 4 17 14 20
59 20 41 0 54 4 54 15 0 10 -10 15 -32 15 -27 1 -30 2 -15 11 9 5 17 17 17 24
0 12 -21 15 -110 15 -91 0 -110 -3 -110 -15z"/>
<path  class="fip_dot" d="M9270 465 c0 -12 15 -15 73 -16 90 -1 62 -17 -31 -18 -83 -1 -80 -24
4 -32 32 -3 47 -6 32 -7 -18 -1 -28 -8 -28 -17 0 -35 78 -30 87 5 4 17 14 20
59 20 41 0 54 4 54 15 0 10 -10 15 -32 15 -27 1 -30 2 -15 11 9 5 17 17 17 24
0 12 -21 15 -110 15 -91 0 -110 -3 -110 -15z"/>
<path  class="fip_dot" d="M7667 406 c-34 -21 -36 -24 -21 -37 14 -11 21 -10 53 8 37 21 48 46
21 50 -8 1 -32 -9 -53 -21z"/>
<path  class="fip_dot" d="M8826 418 c-17 -53 -16 -68 3 -68 13 0 21 11 29 40 9 36 8 40 -9 40
-11 0 -21 -6 -23 -12z"/>
<path  class="fip_dot" d="M9017 406 c-34 -21 -36 -24 -21 -37 14 -11 21 -10 53 8 37 21 48 46
21 50 -8 1 -32 -9 -53 -21z"/>
</g>
</svg>
