<?xml version="1.0" standalone="no"?>
<!DOCTYPE svg PUBLIC "-//W3C//DTD SVG 20010904//EN"
 "http://www.w3.org/TR/2001/REC-SVG-20010904/DTD/svg10.dtd">
<svg version="1.0" xmlns="http://www.w3.org/2000/svg"
 width="227.000000pt" height="227.000000pt" viewBox="0 0 227.000000 227.000000"
 preserveAspectRatio="xMidYMid meet">
<metadata>
Created by potrace 1.11, written by Peter Selinger 2001-2013
</metadata>
<g transform="translate(0.000000,227.000000) scale(0.100000,-0.100000)"
fill="#000000" stroke="none">
<path d="M940 2201 c-246 -47 -482 -184 -633 -368 -116 -142 -194 -302 -234
-478 -22 -96 -22 -344 0 -440 102 -446 446 -774 891 -850 154 -26 300 -16 465
31 243 70 458 229 599 444 70 106 114 204 150 339 22 84 25 116 25 256 0 140
-3 172 -25 256 -81 300 -246 522 -507 679 -89 53 -217 103 -326 126 -112 25
-293 27 -405 5z m619 -566 c36 -16 81 -44 100 -62 20 -18 39 -33 44 -33 4 0 7
-6 7 -13 0 -8 9 -22 20 -32 11 -10 20 -24 20 -30 0 -7 7 -18 15 -25 9 -7 13
-15 11 -17 -2 -3 3 -28 13 -56 9 -29 17 -58 17 -64 1 -7 2 -31 3 -53 0 -23 7
-42 14 -44 106 -31 175 -85 217 -171 34 -72 34 -179 -1 -255 -31 -66 -85 -121
-148 -152 l-46 -23 -702 -3 c-682 -2 -703 -2 -755 18 -68 25 -133 88 -167 160
-35 76 -35 183 -1 255 45 92 119 150 220 170 53 11 56 13 70 56 37 109 103
187 193 230 52 24 75 29 139 29 68 0 84 -4 144 -35 l68 -36 18 23 c10 13 18
26 18 29 0 11 79 89 90 89 5 0 10 4 10 9 0 8 95 54 135 65 11 2 54 4 95 2 57
-2 90 -9 139 -31z"/>
<path d="M1386 1296 c-5 -19 -13 -26 -31 -26 -13 0 -27 -4 -30 -10 -3 -5 -30
-10 -60 -10 -45 0 -58 4 -85 30 -18 17 -34 30 -37 30 -10 0 -33 -29 -33 -42 1
-33 70 -80 70 -48 0 6 4 10 10 10 5 0 7 -7 4 -15 -4 -9 1 -18 13 -22 16 -7 18
-20 18 -93 1 -47 -4 -88 -10 -92 -16 -12 -28 -9 -22 5 3 8 2 18 -1 24 -9 13
-62 26 -63 16 0 -5 -3 -24 -6 -43 -2 -19 -5 -45 -6 -57 0 -13 -3 -23 -6 -23
-4 0 -7 -16 -8 -35 -2 -29 2 -36 23 -41 36 -9 53 1 50 31 -2 14 0 28 5 30 4 3
6 15 4 28 -3 19 -2 20 7 6 10 -14 16 -15 57 -2 40 12 47 12 57 -2 8 -11 31
-15 92 -15 44 0 84 -4 87 -10 4 -6 -13 -10 -44 -10 -27 0 -53 -4 -56 -10 -3
-5 -2 -10 4 -10 5 0 8 -9 6 -20 -4 -18 2 -20 60 -20 75 0 103 20 99 70 -1 16
1 32 4 34 6 3 7 70 3 109 -1 4 -38 7 -84 7 l-83 0 -1 60 c-1 33 3 60 9 60 5 0
7 -4 3 -9 -3 -6 3 -14 12 -20 17 -9 17 -11 1 -23 -12 -10 -14 -19 -7 -35 9
-25 26 -28 81 -13 32 9 38 16 45 48 4 20 6 45 6 55 0 9 -1 31 -2 47 -1 28 -3
30 -42 30 -36 0 -40 2 -34 20 5 16 2 20 -19 20 -13 0 -31 3 -39 6 -10 3 -17
-3 -21 -20z m29 -86 c-3 -5 -11 -10 -16 -10 -6 0 -7 5 -4 10 3 6 11 10 16 10
6 0 7 -4 4 -10z m59 -5 c3 -8 2 -15 -3 -15 -5 0 -14 7 -21 15 -10 12 -10 15 3
15 8 0 17 -7 21 -15z m-150 -95 c0 -59 -3 -75 -15 -78 -13 -2 -15 11 -15 78 0
66 3 80 16 78 11 -3 15 -19 14 -78z m163 -105 c12 -4 11 -50 -2 -63 -4 -4 -6
0 -5 8 6 38 1 40 -78 40 -57 0 -79 4 -79 13 0 9 20 11 76 9 42 -2 81 -5 88 -7z"/>
<path d="M713 1304 c-7 -3 -9 -12 -6 -20 3 -8 1 -14 -4 -14 -5 0 -10 -10 -10
-22 -1 -13 -7 -24 -13 -26 -5 -2 -8 -8 -5 -12 3 -5 -2 -18 -12 -28 -10 -10
-19 -25 -21 -33 -2 -8 -9 -18 -15 -24 -14 -11 -16 -29 -4 -41 4 -4 7 -18 7
-32 0 -19 4 -23 20 -19 18 5 19 0 19 -62 -2 -127 -4 -121 41 -121 31 0 40 4
40 18 1 16 1 16 11 0 5 -10 14 -18 18 -18 24 0 98 110 105 155 1 8 5 17 8 21
4 3 4 12 2 19 -3 7 -1 16 4 19 6 3 9 -26 8 -76 -2 -74 0 -85 20 -105 18 -18
34 -23 73 -23 66 0 84 17 84 83 0 9 3 17 7 17 19 0 1 35 -21 41 -50 14 -56 11
-55 -28 1 -26 -4 -39 -14 -41 -12 -2 -15 13 -15 90 l0 93 50 5 c48 5 50 6 50
35 l0 30 -90 3 -91 3 2 60 2 60 -41 -3 -41 -3 0 -55 c-1 -50 -3 -55 -24 -58
-13 -2 -30 -1 -38 2 -14 5 -14 8 0 22 9 8 14 19 11 24 -3 5 -1 11 5 15 18 11
11 43 -12 49 -26 7 -38 7 -55 0z m108 -201 c-5 -9 -6 -24 -4 -34 3 -11 0 -19
-6 -19 -7 0 -9 -5 -6 -10 4 -6 1 -17 -5 -25 -7 -8 -9 -15 -5 -15 5 0 1 -8 -7
-17 -8 -10 -18 -27 -22 -37 -3 -10 -9 -16 -12 -13 -6 5 -12 186 -7 191 1 1 20
0 42 -2 33 -3 39 -7 32 -19z m89 -3 c0 -11 -4 -20 -9 -20 -7 0 -8 17 -2 38 4
10 11 -2 11 -18z"/>
<path d="M945 1286 c-16 -18 -18 -25 -8 -34 7 -7 17 -12 23 -12 5 0 10 -3 10
-8 0 -13 39 -32 53 -26 8 3 19 15 25 28 9 20 5 25 -33 49 -23 15 -44 27 -46
27 -2 0 -13 -11 -24 -24z"/>
<path d="M1108 1161 c-15 -18 -15 -21 11 -50 32 -36 40 -38 70 -12 l22 19 -31
31 c-37 36 -49 38 -72 12z"/>
</g>
</svg>
