<?xml version="1.0" standalone="no"?>
<!DOCTYPE svg PUBLIC "-//W3C//DTD SVG 20010904//EN"
 "http://www.w3.org/TR/2001/REC-SVG-20010904/DTD/svg10.dtd">
<svg version="1.0" xmlns="http://www.w3.org/2000/svg"
 width="100%" height="100%" viewBox="0 0 40.000000 40.000000"
 preserveAspectRatio="xMidYMid meet">
	<defs>
		<style type="text/css">
			.fip_text {fill:#00F;}.fip_flag {fill:#F00;}.fip_dot {fill:#F00;}
		</style>
	</defs>
<g transform="translate(0.000000,25.000000) scale(0.0100000,-0.0100000)"
fill="#000000" stroke="none">
<path class="fip_text" d="M902 2179 c-275 -58 -527 -231 -680 -468 -231 -357 -231 -815 0
-1172 321 -497 990 -640 1489 -317 497 321 640 990 317 1489 -155 240 -407
412 -686 469 -132 26 -311 26 -440 -1z m564 -520 c182 -34 330 -200 342 -385
4 -60 8 -74 21 -74 37 0 119 -50 163 -99 61 -67 82 -130 76 -225 -8 -117 -71
-211 -176 -263 l-57 -28 -710 0 -710 0 -57 28 c-105 52 -168 146 -176 263 -6
97 15 158 79 228 51 56 111 88 185 100 38 7 41 10 53 54 25 95 104 187 200
233 36 18 64 23 131 23 74 0 92 -3 140 -27 30 -16 59 -32 64 -37 5 -5 25 13
47 45 62 86 159 148 259 165 65 11 61 11 126 -1z"/>
<path class="fip_flag" d="M710 1286 c0 -9 -20 -54 -45 -102 -38 -74 -44 -93 -39 -126 6 -37 7
-38 25 -22 18 17 19 14 19 -89 l0 -107 30 0 c26 0 30 4 30 28 l1 27 23 -28 23
-29 28 34 c38 45 61 100 75 181 7 37 16 67 21 67 5 0 9 -53 9 -119 0 -138 5
-146 83 -145 58 1 71 13 81 76 7 44 3 52 -31 63 -21 6 -23 3 -23 -27 0 -42
-13 -63 -34 -55 -13 5 -16 24 -16 107 l0 100 50 0 c49 0 50 1 50 30 l0 30 -90
0 -90 0 0 60 0 60 -30 0 -30 0 0 -60 0 -60 -40 0 c-38 0 -40 -2 -40 -30 0 -28
3 -30 36 -30 l37 0 -6 -50 c-6 -49 -47 -139 -74 -161 -11 -10 -13 11 -13 118
0 114 3 137 24 189 14 32 21 62 18 65 -4 4 -19 9 -34 13 -21 5 -28 3 -28 -8z"/>
<path class="fip_flag" d="M1393 1281 c-4 -15 -13 -21 -34 -21 l-29 0 0 -125 0 -125 85 0 c94 0
91 3 79 -72 -7 -38 -7 -38 -56 -38 -47 0 -50 -1 -44 -22 3 -13 6 -26 6 -30 0
-17 98 -8 121 11 20 16 23 29 27 110 l4 91 -86 0 -86 0 0 75 0 75 51 0 50 0
-3 -37 c-3 -35 -6 -38 -36 -41 -28 -3 -33 -7 -30 -25 2 -18 11 -23 44 -25 57
-4 71 16 76 106 l4 72 -44 0 c-35 0 -42 3 -40 18 5 27 -52 30 -59 3z"/>
<path class="fip_flag" d="M943 1271 c-11 -17 -7 -23 24 -47 27 -21 40 -25 52 -17 27 17 23 37
-12 61 -41 27 -49 27 -64 3z"/>
<path class="fip_flag" d="M1122 1278 c-18 -18 -15 -32 11 -56 l24 -22 18 20 c18 20 18 21 -5
45 -27 28 -31 30 -48 13z"/>
<path class="fip_flag" d="M1190 1205 c0 -18 5 -25 20 -25 19 0 20 -7 20 -91 0 -82 -2 -91 -20
-96 -21 -5 -26 -28 -12 -51 7 -10 18 -9 58 3 27 8 50 15 52 15 1 0 2 -7 2 -15
0 -12 16 -15 80 -15 79 0 80 0 80 25 0 24 -2 25 -74 25 -65 0 -75 2 -81 19 -4
12 -12 18 -21 14 -11 -4 -14 10 -14 81 0 79 2 86 20 86 15 0 20 7 20 25 0 24
-2 25 -65 25 -63 0 -65 -1 -65 -25z"/>
<path class="fip_flag" d="M1405 1189 c-4 -5 1 -19 11 -30 19 -22 23 -22 44 -9 12 7 12 12 -4
29 -21 23 -41 27 -51 10z"/>
<path class="fip_flag" d="M1115 1150 c-18 -20 -18 -21 10 -50 l29 -30 20 20 21 20 -31 30 -30
31 -19 -21z"/>
<path class="fip_flag" d="M1119 949 l-16 -91 25 -9 c14 -5 26 -8 28 -7 1 2 8 43 15 92 10 74
10 89 -2 97 -29 18 -35 7 -50 -82z"/>
</g>
</svg>
